<mxfile host="Electron" modified="2024-11-29T11:10:45.017Z" agent="Mozilla/5.0 (Macintosh; Intel Mac OS X 10_15_7) AppleWebKit/537.36 (KHTML, like Gecko) draw.io/22.0.1 Chrome/114.0.5735.289 Electron/25.8.4 Safari/537.36" etag="lSQ_N8mME5HoZ7kNYTc1" version="22.0.1" type="device">
  <diagram name="Pagina-1" id="LQfLG2IfJR566BmRYxRQ">
    <mxGraphModel dx="7160" dy="4820" grid="0" gridSize="10" guides="1" tooltips="1" connect="1" arrows="1" fold="1" page="0" pageScale="1" pageWidth="827" pageHeight="1169" math="0" shadow="0">
      <root>
        <mxCell id="0" />
        <mxCell id="1" parent="0" />
        <mxCell id="U-dQp2Zvjfx5eXS3F79k-10" style="edgeStyle=none;curved=1;rounded=0;orthogonalLoop=1;jettySize=auto;html=1;entryX=0;entryY=0.5;entryDx=0;entryDy=0;fontSize=12;startSize=8;endSize=8;endArrow=none;endFill=0;" edge="1" parent="1" source="U-dQp2Zvjfx5eXS3F79k-4" target="U-dQp2Zvjfx5eXS3F79k-7">
          <mxGeometry relative="1" as="geometry" />
        </mxCell>
        <mxCell id="U-dQp2Zvjfx5eXS3F79k-11" style="edgeStyle=none;curved=1;rounded=0;orthogonalLoop=1;jettySize=auto;html=1;fontSize=12;startSize=8;endSize=8;endArrow=none;endFill=0;" edge="1" parent="1" source="U-dQp2Zvjfx5eXS3F79k-1" target="U-dQp2Zvjfx5eXS3F79k-8">
          <mxGeometry relative="1" as="geometry" />
        </mxCell>
        <mxCell id="U-dQp2Zvjfx5eXS3F79k-18" style="edgeStyle=none;curved=1;rounded=0;orthogonalLoop=1;jettySize=auto;html=1;fontSize=12;startSize=8;endSize=8;endArrow=block;endFill=0;" edge="1" parent="1" source="U-dQp2Zvjfx5eXS3F79k-1">
          <mxGeometry relative="1" as="geometry">
            <mxPoint x="-190" y="305.5" as="targetPoint" />
          </mxGeometry>
        </mxCell>
        <mxCell id="U-dQp2Zvjfx5eXS3F79k-1" value="Amministratore" style="shape=umlActor;verticalLabelPosition=bottom;verticalAlign=top;html=1;outlineConnect=0;fontSize=16;" vertex="1" parent="1">
          <mxGeometry x="-205" y="505" width="30" height="60" as="geometry" />
        </mxCell>
        <mxCell id="U-dQp2Zvjfx5eXS3F79k-12" style="edgeStyle=none;curved=1;rounded=0;orthogonalLoop=1;jettySize=auto;html=1;entryX=0;entryY=0.5;entryDx=0;entryDy=0;fontSize=12;startSize=8;endSize=8;endArrow=none;endFill=0;" edge="1" parent="1" source="U-dQp2Zvjfx5eXS3F79k-4" target="U-dQp2Zvjfx5eXS3F79k-9">
          <mxGeometry relative="1" as="geometry" />
        </mxCell>
        <mxCell id="U-dQp2Zvjfx5eXS3F79k-19" style="edgeStyle=none;curved=1;rounded=0;orthogonalLoop=1;jettySize=auto;html=1;fontSize=12;startSize=8;endSize=8;endArrow=block;endFill=0;" edge="1" parent="1" source="U-dQp2Zvjfx5eXS3F79k-4">
          <mxGeometry relative="1" as="geometry">
            <mxPoint x="-190" y="-17" as="targetPoint" />
          </mxGeometry>
        </mxCell>
        <mxCell id="U-dQp2Zvjfx5eXS3F79k-4" value="Gestore Agenzie" style="shape=umlActor;verticalLabelPosition=bottom;verticalAlign=top;html=1;outlineConnect=0;fontSize=16;" vertex="1" parent="1">
          <mxGeometry x="-205" y="215" width="30" height="60" as="geometry" />
        </mxCell>
        <mxCell id="U-dQp2Zvjfx5eXS3F79k-14" style="edgeStyle=none;curved=1;rounded=0;orthogonalLoop=1;jettySize=auto;html=1;fontSize=12;startSize=8;endSize=8;endArrow=none;endFill=0;entryX=0;entryY=0.5;entryDx=0;entryDy=0;" edge="1" parent="1" source="U-dQp2Zvjfx5eXS3F79k-5" target="U-dQp2Zvjfx5eXS3F79k-13">
          <mxGeometry relative="1" as="geometry" />
        </mxCell>
        <mxCell id="U-dQp2Zvjfx5eXS3F79k-38" style="edgeStyle=none;curved=1;rounded=0;orthogonalLoop=1;jettySize=auto;html=1;entryX=0;entryY=0.5;entryDx=0;entryDy=0;fontSize=12;startSize=8;endSize=8;endArrow=none;endFill=0;" edge="1" parent="1" source="U-dQp2Zvjfx5eXS3F79k-5" target="U-dQp2Zvjfx5eXS3F79k-37">
          <mxGeometry relative="1" as="geometry" />
        </mxCell>
        <mxCell id="U-dQp2Zvjfx5eXS3F79k-43" style="edgeStyle=none;curved=1;rounded=0;orthogonalLoop=1;jettySize=auto;html=1;entryX=0;entryY=0.5;entryDx=0;entryDy=0;fontSize=12;startSize=8;endSize=8;endArrow=none;endFill=0;" edge="1" parent="1" source="U-dQp2Zvjfx5eXS3F79k-5" target="U-dQp2Zvjfx5eXS3F79k-41">
          <mxGeometry relative="1" as="geometry" />
        </mxCell>
        <mxCell id="U-dQp2Zvjfx5eXS3F79k-5" value="Agente Immobiliare" style="shape=umlActor;verticalLabelPosition=bottom;verticalAlign=top;html=1;outlineConnect=0;fontSize=16;" vertex="1" parent="1">
          <mxGeometry x="-205" y="-108" width="30" height="60" as="geometry" />
        </mxCell>
        <mxCell id="U-dQp2Zvjfx5eXS3F79k-23" style="edgeStyle=none;curved=1;rounded=0;orthogonalLoop=1;jettySize=auto;html=1;entryX=0;entryY=0.5;entryDx=0;entryDy=0;fontSize=12;startSize=8;endSize=8;endArrow=none;endFill=0;" edge="1" parent="1" source="U-dQp2Zvjfx5eXS3F79k-6" target="U-dQp2Zvjfx5eXS3F79k-21">
          <mxGeometry relative="1" as="geometry" />
        </mxCell>
        <mxCell id="U-dQp2Zvjfx5eXS3F79k-25" style="edgeStyle=none;curved=1;rounded=0;orthogonalLoop=1;jettySize=auto;html=1;entryX=0;entryY=0.5;entryDx=0;entryDy=0;fontSize=12;startSize=8;endSize=8;endArrow=none;endFill=0;" edge="1" parent="1" source="U-dQp2Zvjfx5eXS3F79k-6" target="U-dQp2Zvjfx5eXS3F79k-22">
          <mxGeometry relative="1" as="geometry" />
        </mxCell>
        <mxCell id="U-dQp2Zvjfx5eXS3F79k-34" style="edgeStyle=none;curved=1;rounded=0;orthogonalLoop=1;jettySize=auto;html=1;entryX=0;entryY=0.5;entryDx=0;entryDy=0;fontSize=12;startSize=8;endSize=8;endArrow=none;endFill=0;" edge="1" parent="1" source="U-dQp2Zvjfx5eXS3F79k-6" target="U-dQp2Zvjfx5eXS3F79k-33">
          <mxGeometry relative="1" as="geometry" />
        </mxCell>
        <mxCell id="U-dQp2Zvjfx5eXS3F79k-36" style="edgeStyle=none;curved=1;rounded=0;orthogonalLoop=1;jettySize=auto;html=1;entryX=0;entryY=0.5;entryDx=0;entryDy=0;fontSize=12;startSize=8;endSize=8;endArrow=none;endFill=0;" edge="1" parent="1" source="U-dQp2Zvjfx5eXS3F79k-6" target="U-dQp2Zvjfx5eXS3F79k-35">
          <mxGeometry relative="1" as="geometry" />
        </mxCell>
        <mxCell id="U-dQp2Zvjfx5eXS3F79k-40" style="edgeStyle=none;curved=1;rounded=0;orthogonalLoop=1;jettySize=auto;html=1;entryX=0;entryY=0.5;entryDx=0;entryDy=0;fontSize=12;startSize=8;endSize=8;endArrow=none;endFill=0;" edge="1" parent="1" source="U-dQp2Zvjfx5eXS3F79k-6" target="U-dQp2Zvjfx5eXS3F79k-39">
          <mxGeometry relative="1" as="geometry" />
        </mxCell>
        <mxCell id="U-dQp2Zvjfx5eXS3F79k-6" value="Utente" style="shape=umlActor;verticalLabelPosition=bottom;verticalAlign=top;html=1;outlineConnect=0;fontSize=16;" vertex="1" parent="1">
          <mxGeometry x="539" y="118" width="30" height="60" as="geometry" />
        </mxCell>
        <mxCell id="U-dQp2Zvjfx5eXS3F79k-7" value="Modificare Password" style="ellipse;whiteSpace=wrap;html=1;fontSize=16;" vertex="1" parent="1">
          <mxGeometry x="-2" y="301" width="170.5" height="80" as="geometry" />
        </mxCell>
        <mxCell id="U-dQp2Zvjfx5eXS3F79k-8" value="Creare Account per Gestore Agenzie" style="ellipse;whiteSpace=wrap;html=1;fontSize=16;" vertex="1" parent="1">
          <mxGeometry x="-2" y="495" width="179" height="80" as="geometry" />
        </mxCell>
        <mxCell id="U-dQp2Zvjfx5eXS3F79k-9" value="Creare Account per Agente Immobiliare" style="ellipse;whiteSpace=wrap;html=1;fontSize=16;" vertex="1" parent="1">
          <mxGeometry x="-2" y="205" width="170" height="80" as="geometry" />
        </mxCell>
        <mxCell id="U-dQp2Zvjfx5eXS3F79k-13" value="Effettuare Autenticazione" style="ellipse;whiteSpace=wrap;html=1;fontSize=16;" vertex="1" parent="1">
          <mxGeometry x="2.5" y="-67" width="170" height="80" as="geometry" />
        </mxCell>
        <mxCell id="U-dQp2Zvjfx5eXS3F79k-21" value="Effettuare Registrazione" style="ellipse;whiteSpace=wrap;html=1;fontSize=16;" vertex="1" parent="1">
          <mxGeometry x="729" y="-138" width="170" height="80" as="geometry" />
        </mxCell>
        <mxCell id="U-dQp2Zvjfx5eXS3F79k-22" value="Effettuare Login" style="ellipse;whiteSpace=wrap;html=1;fontSize=16;" vertex="1" parent="1">
          <mxGeometry x="729" y="-15" width="170" height="80" as="geometry" />
        </mxCell>
        <mxCell id="U-dQp2Zvjfx5eXS3F79k-24" style="edgeStyle=none;curved=1;rounded=0;orthogonalLoop=1;jettySize=auto;html=1;exitX=0;exitY=1;exitDx=0;exitDy=0;exitPerimeter=0;fontSize=12;startSize=8;endSize=8;" edge="1" parent="1" source="U-dQp2Zvjfx5eXS3F79k-6" target="U-dQp2Zvjfx5eXS3F79k-6">
          <mxGeometry relative="1" as="geometry" />
        </mxCell>
        <mxCell id="U-dQp2Zvjfx5eXS3F79k-28" style="edgeStyle=none;curved=1;rounded=0;orthogonalLoop=1;jettySize=auto;html=1;entryX=1;entryY=0.5;entryDx=0;entryDy=0;fontSize=12;startSize=8;endSize=8;endArrow=none;endFill=0;" edge="1" parent="1" source="U-dQp2Zvjfx5eXS3F79k-26" target="U-dQp2Zvjfx5eXS3F79k-22">
          <mxGeometry relative="1" as="geometry" />
        </mxCell>
        <mxCell id="U-dQp2Zvjfx5eXS3F79k-26" value="API" style="shape=umlActor;verticalLabelPosition=bottom;verticalAlign=top;html=1;outlineConnect=0;fontSize=16;" vertex="1" parent="1">
          <mxGeometry x="1089" y="118" width="30" height="60" as="geometry" />
        </mxCell>
        <mxCell id="U-dQp2Zvjfx5eXS3F79k-27" style="edgeStyle=none;curved=1;rounded=0;orthogonalLoop=1;jettySize=auto;html=1;entryX=0.984;entryY=0.408;entryDx=0;entryDy=0;entryPerimeter=0;fontSize=12;startSize=8;endSize=8;endArrow=none;endFill=0;" edge="1" parent="1" source="U-dQp2Zvjfx5eXS3F79k-26" target="U-dQp2Zvjfx5eXS3F79k-21">
          <mxGeometry relative="1" as="geometry" />
        </mxCell>
        <mxCell id="U-dQp2Zvjfx5eXS3F79k-29" value="Caricare Immobile" style="ellipse;whiteSpace=wrap;html=1;fontSize=16;" vertex="1" parent="1">
          <mxGeometry x="2.5" y="43" width="170" height="80" as="geometry" />
        </mxCell>
        <mxCell id="U-dQp2Zvjfx5eXS3F79k-30" style="edgeStyle=none;curved=1;rounded=0;orthogonalLoop=1;jettySize=auto;html=1;entryX=0;entryY=0.5;entryDx=0;entryDy=0;fontSize=12;startSize=8;endSize=8;endArrow=none;endFill=0;" edge="1" parent="1" source="U-dQp2Zvjfx5eXS3F79k-5" target="U-dQp2Zvjfx5eXS3F79k-29">
          <mxGeometry relative="1" as="geometry" />
        </mxCell>
        <mxCell id="U-dQp2Zvjfx5eXS3F79k-32" style="edgeStyle=none;curved=1;rounded=0;orthogonalLoop=1;jettySize=auto;html=1;entryX=1;entryY=0.5;entryDx=0;entryDy=0;fontSize=12;startSize=8;endSize=8;endArrow=none;endFill=0;" edge="1" parent="1" source="U-dQp2Zvjfx5eXS3F79k-31" target="U-dQp2Zvjfx5eXS3F79k-29">
          <mxGeometry relative="1" as="geometry" />
        </mxCell>
        <mxCell id="U-dQp2Zvjfx5eXS3F79k-31" value="GeoApify" style="shape=umlActor;verticalLabelPosition=bottom;verticalAlign=top;html=1;outlineConnect=0;fontSize=16;" vertex="1" parent="1">
          <mxGeometry x="347" y="53" width="30" height="60" as="geometry" />
        </mxCell>
        <mxCell id="U-dQp2Zvjfx5eXS3F79k-33" value="Ricercare Immobile" style="ellipse;whiteSpace=wrap;html=1;fontSize=16;" vertex="1" parent="1">
          <mxGeometry x="729" y="108" width="170" height="80" as="geometry" />
        </mxCell>
        <mxCell id="U-dQp2Zvjfx5eXS3F79k-35" value="Proporre offerta per immobile" style="ellipse;whiteSpace=wrap;html=1;fontSize=16;" vertex="1" parent="1">
          <mxGeometry x="729" y="231" width="170" height="80" as="geometry" />
        </mxCell>
        <mxCell id="U-dQp2Zvjfx5eXS3F79k-37" value="Gestire offerta" style="ellipse;whiteSpace=wrap;html=1;fontSize=16;" vertex="1" parent="1">
          <mxGeometry x="7" y="-177" width="170" height="80" as="geometry" />
        </mxCell>
        <mxCell id="U-dQp2Zvjfx5eXS3F79k-39" value="Visualizzare storico offerte" style="ellipse;whiteSpace=wrap;html=1;fontSize=16;" vertex="1" parent="1">
          <mxGeometry x="729" y="354" width="170" height="80" as="geometry" />
        </mxCell>
        <mxCell id="U-dQp2Zvjfx5eXS3F79k-41" value="Visualizzare tracking offerte&amp;nbsp;" style="ellipse;whiteSpace=wrap;html=1;fontSize=16;" vertex="1" parent="1">
          <mxGeometry x="8" y="-287" width="169" height="80" as="geometry" />
        </mxCell>
        <mxCell id="U-dQp2Zvjfx5eXS3F79k-141" value="" style="shape=table;startSize=0;container=1;collapsible=0;childLayout=tableLayout;fontSize=16;" vertex="1" parent="1">
          <mxGeometry x="-86.15000000000009" y="3956" width="656.1470821929901" height="280" as="geometry" />
        </mxCell>
        <mxCell id="U-dQp2Zvjfx5eXS3F79k-142" value="" style="shape=tableRow;horizontal=0;startSize=0;swimlaneHead=0;swimlaneBody=0;strokeColor=inherit;top=0;left=0;bottom=0;right=0;collapsible=0;dropTarget=0;fillColor=none;points=[[0,0.5],[1,0.5]];portConstraint=eastwest;fontSize=16;" vertex="1" parent="U-dQp2Zvjfx5eXS3F79k-141">
          <mxGeometry width="656.1470821929901" height="40" as="geometry" />
        </mxCell>
        <mxCell id="U-dQp2Zvjfx5eXS3F79k-143" value="Step" style="shape=partialRectangle;html=1;whiteSpace=wrap;connectable=0;strokeColor=inherit;overflow=hidden;fillColor=none;top=0;left=0;bottom=0;right=0;pointerEvents=1;fontSize=16;" vertex="1" parent="U-dQp2Zvjfx5eXS3F79k-142">
          <mxGeometry width="167" height="40" as="geometry">
            <mxRectangle width="167" height="40" as="alternateBounds" />
          </mxGeometry>
        </mxCell>
        <mxCell id="U-dQp2Zvjfx5eXS3F79k-144" value="Utente" style="shape=partialRectangle;html=1;whiteSpace=wrap;connectable=0;strokeColor=inherit;overflow=hidden;fillColor=none;top=0;left=0;bottom=0;right=0;pointerEvents=1;fontSize=16;" vertex="1" parent="U-dQp2Zvjfx5eXS3F79k-142">
          <mxGeometry x="167" width="167" height="40" as="geometry">
            <mxRectangle width="167" height="40" as="alternateBounds" />
          </mxGeometry>
        </mxCell>
        <mxCell id="U-dQp2Zvjfx5eXS3F79k-145" value="System" style="shape=partialRectangle;html=1;whiteSpace=wrap;connectable=0;strokeColor=inherit;overflow=hidden;fillColor=none;top=0;left=0;bottom=0;right=0;pointerEvents=1;fontSize=16;" vertex="1" parent="U-dQp2Zvjfx5eXS3F79k-142">
          <mxGeometry x="334" width="161" height="40" as="geometry">
            <mxRectangle width="161" height="40" as="alternateBounds" />
          </mxGeometry>
        </mxCell>
        <mxCell id="U-dQp2Zvjfx5eXS3F79k-170" value="GeoApify" style="shape=partialRectangle;html=1;whiteSpace=wrap;connectable=0;strokeColor=inherit;overflow=hidden;fillColor=none;top=0;left=0;bottom=0;right=0;pointerEvents=1;fontSize=16;" vertex="1" parent="U-dQp2Zvjfx5eXS3F79k-142">
          <mxGeometry x="495" width="161" height="40" as="geometry">
            <mxRectangle width="161" height="40" as="alternateBounds" />
          </mxGeometry>
        </mxCell>
        <mxCell id="U-dQp2Zvjfx5eXS3F79k-146" value="" style="shape=tableRow;horizontal=0;startSize=0;swimlaneHead=0;swimlaneBody=0;strokeColor=inherit;top=0;left=0;bottom=0;right=0;collapsible=0;dropTarget=0;fillColor=none;points=[[0,0.5],[1,0.5]];portConstraint=eastwest;fontSize=16;" vertex="1" parent="U-dQp2Zvjfx5eXS3F79k-141">
          <mxGeometry y="40" width="656.1470821929901" height="40" as="geometry" />
        </mxCell>
        <mxCell id="U-dQp2Zvjfx5eXS3F79k-147" value="1" style="shape=partialRectangle;html=1;whiteSpace=wrap;connectable=0;strokeColor=inherit;overflow=hidden;fillColor=none;top=0;left=0;bottom=0;right=0;pointerEvents=1;fontSize=16;" vertex="1" parent="U-dQp2Zvjfx5eXS3F79k-146">
          <mxGeometry width="167" height="40" as="geometry">
            <mxRectangle width="167" height="40" as="alternateBounds" />
          </mxGeometry>
        </mxCell>
        <mxCell id="U-dQp2Zvjfx5eXS3F79k-148" value="" style="shape=partialRectangle;html=1;whiteSpace=wrap;connectable=0;strokeColor=inherit;overflow=hidden;fillColor=none;top=0;left=0;bottom=0;right=0;pointerEvents=1;fontSize=16;" vertex="1" parent="U-dQp2Zvjfx5eXS3F79k-146">
          <mxGeometry x="167" width="167" height="40" as="geometry">
            <mxRectangle width="167" height="40" as="alternateBounds" />
          </mxGeometry>
        </mxCell>
        <mxCell id="U-dQp2Zvjfx5eXS3F79k-149" style="shape=partialRectangle;html=1;whiteSpace=wrap;connectable=0;strokeColor=inherit;overflow=hidden;fillColor=none;top=0;left=0;bottom=0;right=0;pointerEvents=1;fontSize=16;" vertex="1" parent="U-dQp2Zvjfx5eXS3F79k-146">
          <mxGeometry x="334" width="161" height="40" as="geometry">
            <mxRectangle width="161" height="40" as="alternateBounds" />
          </mxGeometry>
        </mxCell>
        <mxCell id="U-dQp2Zvjfx5eXS3F79k-171" style="shape=partialRectangle;html=1;whiteSpace=wrap;connectable=0;strokeColor=inherit;overflow=hidden;fillColor=none;top=0;left=0;bottom=0;right=0;pointerEvents=1;fontSize=16;" vertex="1" parent="U-dQp2Zvjfx5eXS3F79k-146">
          <mxGeometry x="495" width="161" height="40" as="geometry">
            <mxRectangle width="161" height="40" as="alternateBounds" />
          </mxGeometry>
        </mxCell>
        <mxCell id="U-dQp2Zvjfx5eXS3F79k-150" value="" style="shape=tableRow;horizontal=0;startSize=0;swimlaneHead=0;swimlaneBody=0;strokeColor=inherit;top=0;left=0;bottom=0;right=0;collapsible=0;dropTarget=0;fillColor=none;points=[[0,0.5],[1,0.5]];portConstraint=eastwest;fontSize=16;" vertex="1" parent="U-dQp2Zvjfx5eXS3F79k-141">
          <mxGeometry y="80" width="656.1470821929901" height="40" as="geometry" />
        </mxCell>
        <mxCell id="U-dQp2Zvjfx5eXS3F79k-151" value="2" style="shape=partialRectangle;html=1;whiteSpace=wrap;connectable=0;strokeColor=inherit;overflow=hidden;fillColor=none;top=0;left=0;bottom=0;right=0;pointerEvents=1;fontSize=16;" vertex="1" parent="U-dQp2Zvjfx5eXS3F79k-150">
          <mxGeometry width="167" height="40" as="geometry">
            <mxRectangle width="167" height="40" as="alternateBounds" />
          </mxGeometry>
        </mxCell>
        <mxCell id="U-dQp2Zvjfx5eXS3F79k-152" value="" style="shape=partialRectangle;html=1;whiteSpace=wrap;connectable=0;strokeColor=inherit;overflow=hidden;fillColor=none;top=0;left=0;bottom=0;right=0;pointerEvents=1;fontSize=16;" vertex="1" parent="U-dQp2Zvjfx5eXS3F79k-150">
          <mxGeometry x="167" width="167" height="40" as="geometry">
            <mxRectangle width="167" height="40" as="alternateBounds" />
          </mxGeometry>
        </mxCell>
        <mxCell id="U-dQp2Zvjfx5eXS3F79k-153" style="shape=partialRectangle;html=1;whiteSpace=wrap;connectable=0;strokeColor=inherit;overflow=hidden;fillColor=none;top=0;left=0;bottom=0;right=0;pointerEvents=1;fontSize=16;" vertex="1" parent="U-dQp2Zvjfx5eXS3F79k-150">
          <mxGeometry x="334" width="161" height="40" as="geometry">
            <mxRectangle width="161" height="40" as="alternateBounds" />
          </mxGeometry>
        </mxCell>
        <mxCell id="U-dQp2Zvjfx5eXS3F79k-172" style="shape=partialRectangle;html=1;whiteSpace=wrap;connectable=0;strokeColor=inherit;overflow=hidden;fillColor=none;top=0;left=0;bottom=0;right=0;pointerEvents=1;fontSize=16;" vertex="1" parent="U-dQp2Zvjfx5eXS3F79k-150">
          <mxGeometry x="495" width="161" height="40" as="geometry">
            <mxRectangle width="161" height="40" as="alternateBounds" />
          </mxGeometry>
        </mxCell>
        <mxCell id="U-dQp2Zvjfx5eXS3F79k-154" value="" style="shape=tableRow;horizontal=0;startSize=0;swimlaneHead=0;swimlaneBody=0;strokeColor=inherit;top=0;left=0;bottom=0;right=0;collapsible=0;dropTarget=0;fillColor=none;points=[[0,0.5],[1,0.5]];portConstraint=eastwest;fontSize=16;" vertex="1" parent="U-dQp2Zvjfx5eXS3F79k-141">
          <mxGeometry y="120" width="656.1470821929901" height="40" as="geometry" />
        </mxCell>
        <mxCell id="U-dQp2Zvjfx5eXS3F79k-155" value="3" style="shape=partialRectangle;html=1;whiteSpace=wrap;connectable=0;strokeColor=inherit;overflow=hidden;fillColor=none;top=0;left=0;bottom=0;right=0;pointerEvents=1;fontSize=16;" vertex="1" parent="U-dQp2Zvjfx5eXS3F79k-154">
          <mxGeometry width="167" height="40" as="geometry">
            <mxRectangle width="167" height="40" as="alternateBounds" />
          </mxGeometry>
        </mxCell>
        <mxCell id="U-dQp2Zvjfx5eXS3F79k-156" value="" style="shape=partialRectangle;html=1;whiteSpace=wrap;connectable=0;strokeColor=inherit;overflow=hidden;fillColor=none;top=0;left=0;bottom=0;right=0;pointerEvents=1;fontSize=16;" vertex="1" parent="U-dQp2Zvjfx5eXS3F79k-154">
          <mxGeometry x="167" width="167" height="40" as="geometry">
            <mxRectangle width="167" height="40" as="alternateBounds" />
          </mxGeometry>
        </mxCell>
        <mxCell id="U-dQp2Zvjfx5eXS3F79k-157" style="shape=partialRectangle;html=1;whiteSpace=wrap;connectable=0;strokeColor=inherit;overflow=hidden;fillColor=none;top=0;left=0;bottom=0;right=0;pointerEvents=1;fontSize=16;" vertex="1" parent="U-dQp2Zvjfx5eXS3F79k-154">
          <mxGeometry x="334" width="161" height="40" as="geometry">
            <mxRectangle width="161" height="40" as="alternateBounds" />
          </mxGeometry>
        </mxCell>
        <mxCell id="U-dQp2Zvjfx5eXS3F79k-173" style="shape=partialRectangle;html=1;whiteSpace=wrap;connectable=0;strokeColor=inherit;overflow=hidden;fillColor=none;top=0;left=0;bottom=0;right=0;pointerEvents=1;fontSize=16;" vertex="1" parent="U-dQp2Zvjfx5eXS3F79k-154">
          <mxGeometry x="495" width="161" height="40" as="geometry">
            <mxRectangle width="161" height="40" as="alternateBounds" />
          </mxGeometry>
        </mxCell>
        <mxCell id="U-dQp2Zvjfx5eXS3F79k-158" value="" style="shape=tableRow;horizontal=0;startSize=0;swimlaneHead=0;swimlaneBody=0;strokeColor=inherit;top=0;left=0;bottom=0;right=0;collapsible=0;dropTarget=0;fillColor=none;points=[[0,0.5],[1,0.5]];portConstraint=eastwest;fontSize=16;" vertex="1" parent="U-dQp2Zvjfx5eXS3F79k-141">
          <mxGeometry y="160" width="656.1470821929901" height="40" as="geometry" />
        </mxCell>
        <mxCell id="U-dQp2Zvjfx5eXS3F79k-159" value="4" style="shape=partialRectangle;html=1;whiteSpace=wrap;connectable=0;strokeColor=inherit;overflow=hidden;fillColor=none;top=0;left=0;bottom=0;right=0;pointerEvents=1;fontSize=16;" vertex="1" parent="U-dQp2Zvjfx5eXS3F79k-158">
          <mxGeometry width="167" height="40" as="geometry">
            <mxRectangle width="167" height="40" as="alternateBounds" />
          </mxGeometry>
        </mxCell>
        <mxCell id="U-dQp2Zvjfx5eXS3F79k-160" value="" style="shape=partialRectangle;html=1;whiteSpace=wrap;connectable=0;strokeColor=inherit;overflow=hidden;fillColor=none;top=0;left=0;bottom=0;right=0;pointerEvents=1;fontSize=16;" vertex="1" parent="U-dQp2Zvjfx5eXS3F79k-158">
          <mxGeometry x="167" width="167" height="40" as="geometry">
            <mxRectangle width="167" height="40" as="alternateBounds" />
          </mxGeometry>
        </mxCell>
        <mxCell id="U-dQp2Zvjfx5eXS3F79k-161" style="shape=partialRectangle;html=1;whiteSpace=wrap;connectable=0;strokeColor=inherit;overflow=hidden;fillColor=none;top=0;left=0;bottom=0;right=0;pointerEvents=1;fontSize=16;" vertex="1" parent="U-dQp2Zvjfx5eXS3F79k-158">
          <mxGeometry x="334" width="161" height="40" as="geometry">
            <mxRectangle width="161" height="40" as="alternateBounds" />
          </mxGeometry>
        </mxCell>
        <mxCell id="U-dQp2Zvjfx5eXS3F79k-174" style="shape=partialRectangle;html=1;whiteSpace=wrap;connectable=0;strokeColor=inherit;overflow=hidden;fillColor=none;top=0;left=0;bottom=0;right=0;pointerEvents=1;fontSize=16;" vertex="1" parent="U-dQp2Zvjfx5eXS3F79k-158">
          <mxGeometry x="495" width="161" height="40" as="geometry">
            <mxRectangle width="161" height="40" as="alternateBounds" />
          </mxGeometry>
        </mxCell>
        <mxCell id="U-dQp2Zvjfx5eXS3F79k-162" value="" style="shape=tableRow;horizontal=0;startSize=0;swimlaneHead=0;swimlaneBody=0;strokeColor=inherit;top=0;left=0;bottom=0;right=0;collapsible=0;dropTarget=0;fillColor=none;points=[[0,0.5],[1,0.5]];portConstraint=eastwest;fontSize=16;" vertex="1" parent="U-dQp2Zvjfx5eXS3F79k-141">
          <mxGeometry y="200" width="656.1470821929901" height="40" as="geometry" />
        </mxCell>
        <mxCell id="U-dQp2Zvjfx5eXS3F79k-163" value="5" style="shape=partialRectangle;html=1;whiteSpace=wrap;connectable=0;strokeColor=inherit;overflow=hidden;fillColor=none;top=0;left=0;bottom=0;right=0;pointerEvents=1;fontSize=16;" vertex="1" parent="U-dQp2Zvjfx5eXS3F79k-162">
          <mxGeometry width="167" height="40" as="geometry">
            <mxRectangle width="167" height="40" as="alternateBounds" />
          </mxGeometry>
        </mxCell>
        <mxCell id="U-dQp2Zvjfx5eXS3F79k-164" value="" style="shape=partialRectangle;html=1;whiteSpace=wrap;connectable=0;strokeColor=inherit;overflow=hidden;fillColor=none;top=0;left=0;bottom=0;right=0;pointerEvents=1;fontSize=16;" vertex="1" parent="U-dQp2Zvjfx5eXS3F79k-162">
          <mxGeometry x="167" width="167" height="40" as="geometry">
            <mxRectangle width="167" height="40" as="alternateBounds" />
          </mxGeometry>
        </mxCell>
        <mxCell id="U-dQp2Zvjfx5eXS3F79k-165" style="shape=partialRectangle;html=1;whiteSpace=wrap;connectable=0;strokeColor=inherit;overflow=hidden;fillColor=none;top=0;left=0;bottom=0;right=0;pointerEvents=1;fontSize=16;" vertex="1" parent="U-dQp2Zvjfx5eXS3F79k-162">
          <mxGeometry x="334" width="161" height="40" as="geometry">
            <mxRectangle width="161" height="40" as="alternateBounds" />
          </mxGeometry>
        </mxCell>
        <mxCell id="U-dQp2Zvjfx5eXS3F79k-175" style="shape=partialRectangle;html=1;whiteSpace=wrap;connectable=0;strokeColor=inherit;overflow=hidden;fillColor=none;top=0;left=0;bottom=0;right=0;pointerEvents=1;fontSize=16;" vertex="1" parent="U-dQp2Zvjfx5eXS3F79k-162">
          <mxGeometry x="495" width="161" height="40" as="geometry">
            <mxRectangle width="161" height="40" as="alternateBounds" />
          </mxGeometry>
        </mxCell>
        <mxCell id="U-dQp2Zvjfx5eXS3F79k-166" value="" style="shape=tableRow;horizontal=0;startSize=0;swimlaneHead=0;swimlaneBody=0;strokeColor=inherit;top=0;left=0;bottom=0;right=0;collapsible=0;dropTarget=0;fillColor=none;points=[[0,0.5],[1,0.5]];portConstraint=eastwest;fontSize=16;" vertex="1" parent="U-dQp2Zvjfx5eXS3F79k-141">
          <mxGeometry y="240" width="656.1470821929901" height="40" as="geometry" />
        </mxCell>
        <mxCell id="U-dQp2Zvjfx5eXS3F79k-167" value="6" style="shape=partialRectangle;html=1;whiteSpace=wrap;connectable=0;strokeColor=inherit;overflow=hidden;fillColor=none;top=0;left=0;bottom=0;right=0;pointerEvents=1;fontSize=16;" vertex="1" parent="U-dQp2Zvjfx5eXS3F79k-166">
          <mxGeometry width="167" height="40" as="geometry">
            <mxRectangle width="167" height="40" as="alternateBounds" />
          </mxGeometry>
        </mxCell>
        <mxCell id="U-dQp2Zvjfx5eXS3F79k-168" value="" style="shape=partialRectangle;html=1;whiteSpace=wrap;connectable=0;strokeColor=inherit;overflow=hidden;fillColor=none;top=0;left=0;bottom=0;right=0;pointerEvents=1;fontSize=16;" vertex="1" parent="U-dQp2Zvjfx5eXS3F79k-166">
          <mxGeometry x="167" width="167" height="40" as="geometry">
            <mxRectangle width="167" height="40" as="alternateBounds" />
          </mxGeometry>
        </mxCell>
        <mxCell id="U-dQp2Zvjfx5eXS3F79k-169" style="shape=partialRectangle;html=1;whiteSpace=wrap;connectable=0;strokeColor=inherit;overflow=hidden;fillColor=none;top=0;left=0;bottom=0;right=0;pointerEvents=1;fontSize=16;" vertex="1" parent="U-dQp2Zvjfx5eXS3F79k-166">
          <mxGeometry x="334" width="161" height="40" as="geometry">
            <mxRectangle width="161" height="40" as="alternateBounds" />
          </mxGeometry>
        </mxCell>
        <mxCell id="U-dQp2Zvjfx5eXS3F79k-176" style="shape=partialRectangle;html=1;whiteSpace=wrap;connectable=0;strokeColor=inherit;overflow=hidden;fillColor=none;top=0;left=0;bottom=0;right=0;pointerEvents=1;fontSize=16;" vertex="1" parent="U-dQp2Zvjfx5eXS3F79k-166">
          <mxGeometry x="495" width="161" height="40" as="geometry">
            <mxRectangle width="161" height="40" as="alternateBounds" />
          </mxGeometry>
        </mxCell>
        <mxCell id="U-dQp2Zvjfx5eXS3F79k-116" value="" style="shape=table;startSize=0;container=1;collapsible=0;childLayout=tableLayout;fontSize=16;" vertex="1" parent="1">
          <mxGeometry x="-581" y="3636" width="990" height="320" as="geometry" />
        </mxCell>
        <mxCell id="U-dQp2Zvjfx5eXS3F79k-117" value="" style="shape=tableRow;horizontal=0;startSize=0;swimlaneHead=0;swimlaneBody=0;strokeColor=inherit;top=0;left=0;bottom=0;right=0;collapsible=0;dropTarget=0;fillColor=none;points=[[0,0.5],[1,0.5]];portConstraint=eastwest;fontSize=16;" vertex="1" parent="U-dQp2Zvjfx5eXS3F79k-116">
          <mxGeometry width="990" height="40" as="geometry" />
        </mxCell>
        <mxCell id="U-dQp2Zvjfx5eXS3F79k-118" value="UseCase#1" style="shape=partialRectangle;html=1;whiteSpace=wrap;connectable=0;strokeColor=inherit;overflow=hidden;fillColor=none;top=0;left=0;bottom=0;right=0;pointerEvents=1;fontSize=16;" vertex="1" parent="U-dQp2Zvjfx5eXS3F79k-117">
          <mxGeometry width="495" height="40" as="geometry">
            <mxRectangle width="495" height="40" as="alternateBounds" />
          </mxGeometry>
        </mxCell>
        <mxCell id="U-dQp2Zvjfx5eXS3F79k-119" value="Caricare immobile" style="shape=partialRectangle;html=1;whiteSpace=wrap;connectable=0;strokeColor=inherit;overflow=hidden;fillColor=none;top=0;left=0;bottom=0;right=0;pointerEvents=1;fontSize=16;" vertex="1" parent="U-dQp2Zvjfx5eXS3F79k-117">
          <mxGeometry x="495" width="495" height="40" as="geometry">
            <mxRectangle width="495" height="40" as="alternateBounds" />
          </mxGeometry>
        </mxCell>
        <mxCell id="U-dQp2Zvjfx5eXS3F79k-120" value="" style="shape=tableRow;horizontal=0;startSize=0;swimlaneHead=0;swimlaneBody=0;strokeColor=inherit;top=0;left=0;bottom=0;right=0;collapsible=0;dropTarget=0;fillColor=none;points=[[0,0.5],[1,0.5]];portConstraint=eastwest;fontSize=16;" vertex="1" parent="U-dQp2Zvjfx5eXS3F79k-116">
          <mxGeometry y="40" width="990" height="40" as="geometry" />
        </mxCell>
        <mxCell id="U-dQp2Zvjfx5eXS3F79k-121" value="Actor" style="shape=partialRectangle;html=1;whiteSpace=wrap;connectable=0;strokeColor=inherit;overflow=hidden;fillColor=none;top=0;left=0;bottom=0;right=0;pointerEvents=1;fontSize=16;" vertex="1" parent="U-dQp2Zvjfx5eXS3F79k-120">
          <mxGeometry width="495" height="40" as="geometry">
            <mxRectangle width="495" height="40" as="alternateBounds" />
          </mxGeometry>
        </mxCell>
        <mxCell id="U-dQp2Zvjfx5eXS3F79k-122" value="Agente Immobiliare" style="shape=partialRectangle;html=1;whiteSpace=wrap;connectable=0;strokeColor=inherit;overflow=hidden;fillColor=none;top=0;left=0;bottom=0;right=0;pointerEvents=1;fontSize=16;" vertex="1" parent="U-dQp2Zvjfx5eXS3F79k-120">
          <mxGeometry x="495" width="495" height="40" as="geometry">
            <mxRectangle width="495" height="40" as="alternateBounds" />
          </mxGeometry>
        </mxCell>
        <mxCell id="U-dQp2Zvjfx5eXS3F79k-123" value="" style="shape=tableRow;horizontal=0;startSize=0;swimlaneHead=0;swimlaneBody=0;strokeColor=inherit;top=0;left=0;bottom=0;right=0;collapsible=0;dropTarget=0;fillColor=none;points=[[0,0.5],[1,0.5]];portConstraint=eastwest;fontSize=16;" vertex="1" parent="U-dQp2Zvjfx5eXS3F79k-116">
          <mxGeometry y="80" width="990" height="40" as="geometry" />
        </mxCell>
        <mxCell id="U-dQp2Zvjfx5eXS3F79k-124" value="Goal" style="shape=partialRectangle;html=1;whiteSpace=wrap;connectable=0;strokeColor=inherit;overflow=hidden;fillColor=none;top=0;left=0;bottom=0;right=0;pointerEvents=1;fontSize=16;" vertex="1" parent="U-dQp2Zvjfx5eXS3F79k-123">
          <mxGeometry width="495" height="40" as="geometry">
            <mxRectangle width="495" height="40" as="alternateBounds" />
          </mxGeometry>
        </mxCell>
        <mxCell id="U-dQp2Zvjfx5eXS3F79k-125" value="" style="shape=partialRectangle;html=1;whiteSpace=wrap;connectable=0;strokeColor=inherit;overflow=hidden;fillColor=none;top=0;left=0;bottom=0;right=0;pointerEvents=1;fontSize=16;" vertex="1" parent="U-dQp2Zvjfx5eXS3F79k-123">
          <mxGeometry x="495" width="495" height="40" as="geometry">
            <mxRectangle width="495" height="40" as="alternateBounds" />
          </mxGeometry>
        </mxCell>
        <mxCell id="U-dQp2Zvjfx5eXS3F79k-126" value="" style="shape=tableRow;horizontal=0;startSize=0;swimlaneHead=0;swimlaneBody=0;strokeColor=inherit;top=0;left=0;bottom=0;right=0;collapsible=0;dropTarget=0;fillColor=none;points=[[0,0.5],[1,0.5]];portConstraint=eastwest;fontSize=16;" vertex="1" parent="U-dQp2Zvjfx5eXS3F79k-116">
          <mxGeometry y="120" width="990" height="40" as="geometry" />
        </mxCell>
        <mxCell id="U-dQp2Zvjfx5eXS3F79k-127" value="Trigger" style="shape=partialRectangle;html=1;whiteSpace=wrap;connectable=0;strokeColor=inherit;overflow=hidden;fillColor=none;top=0;left=0;bottom=0;right=0;pointerEvents=1;fontSize=16;" vertex="1" parent="U-dQp2Zvjfx5eXS3F79k-126">
          <mxGeometry width="495" height="40" as="geometry">
            <mxRectangle width="495" height="40" as="alternateBounds" />
          </mxGeometry>
        </mxCell>
        <mxCell id="U-dQp2Zvjfx5eXS3F79k-128" value="" style="shape=partialRectangle;html=1;whiteSpace=wrap;connectable=0;strokeColor=inherit;overflow=hidden;fillColor=none;top=0;left=0;bottom=0;right=0;pointerEvents=1;fontSize=16;" vertex="1" parent="U-dQp2Zvjfx5eXS3F79k-126">
          <mxGeometry x="495" width="495" height="40" as="geometry">
            <mxRectangle width="495" height="40" as="alternateBounds" />
          </mxGeometry>
        </mxCell>
        <mxCell id="U-dQp2Zvjfx5eXS3F79k-129" value="" style="shape=tableRow;horizontal=0;startSize=0;swimlaneHead=0;swimlaneBody=0;strokeColor=inherit;top=0;left=0;bottom=0;right=0;collapsible=0;dropTarget=0;fillColor=none;points=[[0,0.5],[1,0.5]];portConstraint=eastwest;fontSize=16;" vertex="1" parent="U-dQp2Zvjfx5eXS3F79k-116">
          <mxGeometry y="160" width="990" height="40" as="geometry" />
        </mxCell>
        <mxCell id="U-dQp2Zvjfx5eXS3F79k-130" value="Precondition" style="shape=partialRectangle;html=1;whiteSpace=wrap;connectable=0;strokeColor=inherit;overflow=hidden;fillColor=none;top=0;left=0;bottom=0;right=0;pointerEvents=1;fontSize=16;" vertex="1" parent="U-dQp2Zvjfx5eXS3F79k-129">
          <mxGeometry width="495" height="40" as="geometry">
            <mxRectangle width="495" height="40" as="alternateBounds" />
          </mxGeometry>
        </mxCell>
        <mxCell id="U-dQp2Zvjfx5eXS3F79k-131" value="" style="shape=partialRectangle;html=1;whiteSpace=wrap;connectable=0;strokeColor=inherit;overflow=hidden;fillColor=none;top=0;left=0;bottom=0;right=0;pointerEvents=1;fontSize=16;" vertex="1" parent="U-dQp2Zvjfx5eXS3F79k-129">
          <mxGeometry x="495" width="495" height="40" as="geometry">
            <mxRectangle width="495" height="40" as="alternateBounds" />
          </mxGeometry>
        </mxCell>
        <mxCell id="U-dQp2Zvjfx5eXS3F79k-132" value="" style="shape=tableRow;horizontal=0;startSize=0;swimlaneHead=0;swimlaneBody=0;strokeColor=inherit;top=0;left=0;bottom=0;right=0;collapsible=0;dropTarget=0;fillColor=none;points=[[0,0.5],[1,0.5]];portConstraint=eastwest;fontSize=16;" vertex="1" parent="U-dQp2Zvjfx5eXS3F79k-116">
          <mxGeometry y="200" width="990" height="40" as="geometry" />
        </mxCell>
        <mxCell id="U-dQp2Zvjfx5eXS3F79k-133" value="Success" style="shape=partialRectangle;html=1;whiteSpace=wrap;connectable=0;strokeColor=inherit;overflow=hidden;fillColor=none;top=0;left=0;bottom=0;right=0;pointerEvents=1;fontSize=16;" vertex="1" parent="U-dQp2Zvjfx5eXS3F79k-132">
          <mxGeometry width="495" height="40" as="geometry">
            <mxRectangle width="495" height="40" as="alternateBounds" />
          </mxGeometry>
        </mxCell>
        <mxCell id="U-dQp2Zvjfx5eXS3F79k-134" value="" style="shape=partialRectangle;html=1;whiteSpace=wrap;connectable=0;strokeColor=inherit;overflow=hidden;fillColor=none;top=0;left=0;bottom=0;right=0;pointerEvents=1;fontSize=16;" vertex="1" parent="U-dQp2Zvjfx5eXS3F79k-132">
          <mxGeometry x="495" width="495" height="40" as="geometry">
            <mxRectangle width="495" height="40" as="alternateBounds" />
          </mxGeometry>
        </mxCell>
        <mxCell id="U-dQp2Zvjfx5eXS3F79k-135" value="" style="shape=tableRow;horizontal=0;startSize=0;swimlaneHead=0;swimlaneBody=0;strokeColor=inherit;top=0;left=0;bottom=0;right=0;collapsible=0;dropTarget=0;fillColor=none;points=[[0,0.5],[1,0.5]];portConstraint=eastwest;fontSize=16;" vertex="1" parent="U-dQp2Zvjfx5eXS3F79k-116">
          <mxGeometry y="240" width="990" height="40" as="geometry" />
        </mxCell>
        <mxCell id="U-dQp2Zvjfx5eXS3F79k-136" value="Fail" style="shape=partialRectangle;html=1;whiteSpace=wrap;connectable=0;strokeColor=inherit;overflow=hidden;fillColor=none;top=0;left=0;bottom=0;right=0;pointerEvents=1;fontSize=16;" vertex="1" parent="U-dQp2Zvjfx5eXS3F79k-135">
          <mxGeometry width="495" height="40" as="geometry">
            <mxRectangle width="495" height="40" as="alternateBounds" />
          </mxGeometry>
        </mxCell>
        <mxCell id="U-dQp2Zvjfx5eXS3F79k-137" value="" style="shape=partialRectangle;html=1;whiteSpace=wrap;connectable=0;strokeColor=inherit;overflow=hidden;fillColor=none;top=0;left=0;bottom=0;right=0;pointerEvents=1;fontSize=16;" vertex="1" parent="U-dQp2Zvjfx5eXS3F79k-135">
          <mxGeometry x="495" width="495" height="40" as="geometry">
            <mxRectangle width="495" height="40" as="alternateBounds" />
          </mxGeometry>
        </mxCell>
        <mxCell id="U-dQp2Zvjfx5eXS3F79k-138" value="" style="shape=tableRow;horizontal=0;startSize=0;swimlaneHead=0;swimlaneBody=0;strokeColor=inherit;top=0;left=0;bottom=0;right=0;collapsible=0;dropTarget=0;fillColor=none;points=[[0,0.5],[1,0.5]];portConstraint=eastwest;fontSize=16;" vertex="1" parent="U-dQp2Zvjfx5eXS3F79k-116">
          <mxGeometry y="280" width="990" height="40" as="geometry" />
        </mxCell>
        <mxCell id="U-dQp2Zvjfx5eXS3F79k-139" value="Main" style="shape=partialRectangle;html=1;whiteSpace=wrap;connectable=0;strokeColor=inherit;overflow=hidden;fillColor=none;top=0;left=0;bottom=0;right=0;pointerEvents=1;fontSize=16;" vertex="1" parent="U-dQp2Zvjfx5eXS3F79k-138">
          <mxGeometry width="495" height="40" as="geometry">
            <mxRectangle width="495" height="40" as="alternateBounds" />
          </mxGeometry>
        </mxCell>
        <mxCell id="U-dQp2Zvjfx5eXS3F79k-140" value="" style="shape=partialRectangle;html=1;whiteSpace=wrap;connectable=0;strokeColor=inherit;overflow=hidden;fillColor=none;top=0;left=0;bottom=0;right=0;pointerEvents=1;fontSize=16;" vertex="1" parent="U-dQp2Zvjfx5eXS3F79k-138">
          <mxGeometry x="495" width="495" height="40" as="geometry">
            <mxRectangle width="495" height="40" as="alternateBounds" />
          </mxGeometry>
        </mxCell>
        <mxCell id="U-dQp2Zvjfx5eXS3F79k-180" value="Home Page" style="strokeWidth=1;shadow=0;dashed=0;align=center;html=1;shape=mxgraph.mockup.containers.window;align=left;verticalAlign=top;spacingLeft=8;strokeColor2=#008cff;strokeColor3=#c4c4c4;fontColor=#666666;mainText=;fontSize=17;labelBackgroundColor=none;whiteSpace=wrap;" vertex="1" parent="1">
          <mxGeometry x="707" y="2326" width="536" height="526" as="geometry" />
        </mxCell>
        <mxCell id="U-dQp2Zvjfx5eXS3F79k-196" value="Search" style="strokeWidth=1;shadow=0;dashed=0;align=center;html=1;shape=mxgraph.mockup.forms.searchBox;strokeColor=#999999;mainText=;strokeColor2=#008cff;fontColor=#666666;fontSize=17;align=left;spacingLeft=3;whiteSpace=wrap;" vertex="1" parent="1">
          <mxGeometry x="820" y="2401" width="330" height="30" as="geometry" />
        </mxCell>
        <mxCell id="U-dQp2Zvjfx5eXS3F79k-197" value="" style="shape=mxgraph.mockup.containers.marginRect;rectMarginTop=10;strokeColor=#666666;strokeWidth=1;dashed=0;rounded=1;arcSize=5;recursiveResize=0;html=1;whiteSpace=wrap;fontSize=16;" vertex="1" parent="1">
          <mxGeometry x="730" y="2521" width="149" height="159" as="geometry" />
        </mxCell>
        <mxCell id="U-dQp2Zvjfx5eXS3F79k-201" value="" style="html=1;verticalLabelPosition=bottom;align=center;labelBackgroundColor=#ffffff;verticalAlign=top;strokeWidth=2;strokeColor=#0080F0;shadow=0;dashed=0;shape=mxgraph.ios7.icons.user;fontSize=16;" vertex="1" parent="1">
          <mxGeometry x="1201" y="2371" width="30" height="30" as="geometry" />
        </mxCell>
        <mxCell id="U-dQp2Zvjfx5eXS3F79k-202" value="" style="shape=mxgraph.mockup.containers.marginRect;rectMarginTop=10;strokeColor=#666666;strokeWidth=1;dashed=0;rounded=1;arcSize=5;recursiveResize=0;html=1;whiteSpace=wrap;fontSize=16;" vertex="1" parent="1">
          <mxGeometry x="900.5" y="2521" width="149" height="159" as="geometry" />
        </mxCell>
        <mxCell id="U-dQp2Zvjfx5eXS3F79k-203" value="" style="shape=mxgraph.mockup.containers.marginRect;rectMarginTop=10;strokeColor=#666666;strokeWidth=1;dashed=0;rounded=1;arcSize=5;recursiveResize=0;html=1;whiteSpace=wrap;fontSize=16;" vertex="1" parent="1">
          <mxGeometry x="1070" y="2521" width="149" height="159" as="geometry" />
        </mxCell>
        <mxCell id="U-dQp2Zvjfx5eXS3F79k-205" value="" style="sketch=0;pointerEvents=1;shadow=0;dashed=0;html=1;strokeColor=none;labelPosition=center;verticalLabelPosition=bottom;verticalAlign=top;outlineConnect=0;align=center;shape=mxgraph.office.concepts.home_page;fillColor=#2072B8;fontSize=16;" vertex="1" parent="1">
          <mxGeometry x="735" y="2535" width="53" height="43" as="geometry" />
        </mxCell>
        <mxCell id="U-dQp2Zvjfx5eXS3F79k-207" value="Prezzo: 150.000€&lt;br&gt;Mq: 120&lt;br&gt;Posizione: Torino" style="text;html=1;align=left;verticalAlign=middle;resizable=0;points=[];autosize=1;strokeColor=none;fillColor=none;fontSize=16;" vertex="1" parent="1">
          <mxGeometry x="735" y="2585" width="146" height="70" as="geometry" />
        </mxCell>
        <mxCell id="U-dQp2Zvjfx5eXS3F79k-208" value="" style="shape=mxgraph.mockup.containers.marginRect;rectMarginTop=10;strokeColor=#666666;strokeWidth=1;dashed=0;rounded=1;arcSize=5;recursiveResize=0;html=1;whiteSpace=wrap;fontSize=16;" vertex="1" parent="1">
          <mxGeometry x="730" y="2684" width="149" height="159" as="geometry" />
        </mxCell>
        <mxCell id="U-dQp2Zvjfx5eXS3F79k-209" value="" style="sketch=0;pointerEvents=1;shadow=0;dashed=0;html=1;strokeColor=none;labelPosition=center;verticalLabelPosition=bottom;verticalAlign=top;outlineConnect=0;align=center;shape=mxgraph.office.concepts.home_page;fillColor=#2072B8;fontSize=16;" vertex="1" parent="1">
          <mxGeometry x="735" y="2698" width="53" height="43" as="geometry" />
        </mxCell>
        <mxCell id="U-dQp2Zvjfx5eXS3F79k-210" value="Prezzo: 150.000€&lt;br&gt;Mq: 120&lt;br&gt;Posizione: Torino" style="text;html=1;align=left;verticalAlign=middle;resizable=0;points=[];autosize=1;strokeColor=none;fillColor=none;fontSize=16;" vertex="1" parent="1">
          <mxGeometry x="735" y="2748" width="146" height="70" as="geometry" />
        </mxCell>
        <mxCell id="U-dQp2Zvjfx5eXS3F79k-211" value="" style="shape=mxgraph.mockup.containers.marginRect;rectMarginTop=10;strokeColor=#666666;strokeWidth=1;dashed=0;rounded=1;arcSize=5;recursiveResize=0;html=1;whiteSpace=wrap;fontSize=16;" vertex="1" parent="1">
          <mxGeometry x="900.5" y="2684" width="149" height="159" as="geometry" />
        </mxCell>
        <mxCell id="U-dQp2Zvjfx5eXS3F79k-212" value="" style="sketch=0;pointerEvents=1;shadow=0;dashed=0;html=1;strokeColor=none;labelPosition=center;verticalLabelPosition=bottom;verticalAlign=top;outlineConnect=0;align=center;shape=mxgraph.office.concepts.home_page;fillColor=#2072B8;fontSize=16;" vertex="1" parent="1">
          <mxGeometry x="905.5" y="2698" width="53" height="43" as="geometry" />
        </mxCell>
        <mxCell id="U-dQp2Zvjfx5eXS3F79k-213" value="Prezzo: 150.000€&lt;br&gt;Mq: 120&lt;br&gt;Posizione: Torino" style="text;html=1;align=left;verticalAlign=middle;resizable=0;points=[];autosize=1;strokeColor=none;fillColor=none;fontSize=16;" vertex="1" parent="1">
          <mxGeometry x="905.5" y="2748" width="146" height="70" as="geometry" />
        </mxCell>
        <mxCell id="U-dQp2Zvjfx5eXS3F79k-215" value="" style="shape=mxgraph.mockup.containers.marginRect;rectMarginTop=10;strokeColor=#666666;strokeWidth=1;dashed=0;rounded=1;arcSize=5;recursiveResize=0;html=1;whiteSpace=wrap;fontSize=16;" vertex="1" parent="1">
          <mxGeometry x="1070" y="2684" width="149" height="159" as="geometry" />
        </mxCell>
        <mxCell id="U-dQp2Zvjfx5eXS3F79k-216" value="" style="sketch=0;pointerEvents=1;shadow=0;dashed=0;html=1;strokeColor=none;labelPosition=center;verticalLabelPosition=bottom;verticalAlign=top;outlineConnect=0;align=center;shape=mxgraph.office.concepts.home_page;fillColor=#2072B8;fontSize=16;" vertex="1" parent="1">
          <mxGeometry x="1075" y="2698" width="53" height="43" as="geometry" />
        </mxCell>
        <mxCell id="U-dQp2Zvjfx5eXS3F79k-217" value="Prezzo: 150.000€&lt;br&gt;Mq: 120&lt;br&gt;Posizione: Torino" style="text;html=1;align=left;verticalAlign=middle;resizable=0;points=[];autosize=1;strokeColor=none;fillColor=none;fontSize=16;" vertex="1" parent="1">
          <mxGeometry x="1075" y="2748" width="146" height="70" as="geometry" />
        </mxCell>
        <mxCell id="U-dQp2Zvjfx5eXS3F79k-218" value="" style="shape=mxgraph.mockup.containers.marginRect;rectMarginTop=10;strokeColor=#666666;strokeWidth=1;dashed=0;rounded=1;arcSize=5;recursiveResize=0;html=1;whiteSpace=wrap;fontSize=16;" vertex="1" parent="1">
          <mxGeometry x="900.5" y="2521" width="149" height="159" as="geometry" />
        </mxCell>
        <mxCell id="U-dQp2Zvjfx5eXS3F79k-219" value="" style="sketch=0;pointerEvents=1;shadow=0;dashed=0;html=1;strokeColor=none;labelPosition=center;verticalLabelPosition=bottom;verticalAlign=top;outlineConnect=0;align=center;shape=mxgraph.office.concepts.home_page;fillColor=#2072B8;fontSize=16;" vertex="1" parent="1">
          <mxGeometry x="905.5" y="2535" width="53" height="43" as="geometry" />
        </mxCell>
        <mxCell id="U-dQp2Zvjfx5eXS3F79k-220" value="Prezzo: 150.000€&lt;br&gt;Mq: 120&lt;br&gt;Posizione: Torino" style="text;html=1;align=left;verticalAlign=middle;resizable=0;points=[];autosize=1;strokeColor=none;fillColor=none;fontSize=16;" vertex="1" parent="1">
          <mxGeometry x="905.5" y="2585" width="146" height="70" as="geometry" />
        </mxCell>
        <mxCell id="U-dQp2Zvjfx5eXS3F79k-221" value="" style="shape=mxgraph.mockup.containers.marginRect;rectMarginTop=10;strokeColor=#666666;strokeWidth=1;dashed=0;rounded=1;arcSize=5;recursiveResize=0;html=1;whiteSpace=wrap;fontSize=16;" vertex="1" parent="1">
          <mxGeometry x="1070" y="2521" width="149" height="159" as="geometry" />
        </mxCell>
        <mxCell id="U-dQp2Zvjfx5eXS3F79k-222" value="" style="sketch=0;pointerEvents=1;shadow=0;dashed=0;html=1;strokeColor=none;labelPosition=center;verticalLabelPosition=bottom;verticalAlign=top;outlineConnect=0;align=center;shape=mxgraph.office.concepts.home_page;fillColor=#2072B8;fontSize=16;" vertex="1" parent="1">
          <mxGeometry x="1075" y="2535" width="53" height="43" as="geometry" />
        </mxCell>
        <mxCell id="U-dQp2Zvjfx5eXS3F79k-223" value="Prezzo: 150.000€&lt;br&gt;Mq: 120&lt;br&gt;Posizione: Torino" style="text;html=1;align=left;verticalAlign=middle;resizable=0;points=[];autosize=1;strokeColor=none;fillColor=none;fontSize=16;" vertex="1" parent="1">
          <mxGeometry x="1075" y="2585" width="146" height="70" as="geometry" />
        </mxCell>
        <mxCell id="U-dQp2Zvjfx5eXS3F79k-225" value="&lt;font style=&quot;font-size: 12px;&quot;&gt;&lt;u&gt;Ricerca Avanzata&lt;/u&gt;&lt;/font&gt;" style="text;html=1;align=center;verticalAlign=middle;resizable=0;points=[];autosize=1;strokeColor=none;fillColor=none;fontSize=16;" vertex="1" parent="1">
          <mxGeometry x="811" y="2424" width="111" height="31" as="geometry" />
        </mxCell>
        <mxCell id="U-dQp2Zvjfx5eXS3F79k-226" value="Research Page" style="strokeWidth=1;shadow=0;dashed=0;align=center;html=1;shape=mxgraph.mockup.containers.window;align=left;verticalAlign=top;spacingLeft=8;strokeColor2=#008cff;strokeColor3=#c4c4c4;fontColor=#666666;mainText=;fontSize=17;labelBackgroundColor=none;whiteSpace=wrap;" vertex="1" parent="1">
          <mxGeometry x="1359" y="2326" width="536" height="526" as="geometry" />
        </mxCell>
        <mxCell id="U-dQp2Zvjfx5eXS3F79k-227" style="edgeStyle=none;curved=1;rounded=0;orthogonalLoop=1;jettySize=auto;html=1;fontSize=12;startSize=8;endSize=8;" edge="1" parent="1">
          <mxGeometry relative="1" as="geometry">
            <mxPoint x="907" y="2440" as="sourcePoint" />
            <mxPoint x="1356" y="2340" as="targetPoint" />
            <Array as="points">
              <mxPoint x="1180" y="2482" />
            </Array>
          </mxGeometry>
        </mxCell>
        <mxCell id="U-dQp2Zvjfx5eXS3F79k-228" value="" style="shape=mxgraph.mockup.containers.marginRect;rectMarginTop=10;strokeColor=#314354;strokeWidth=1;dashed=0;rounded=1;arcSize=5;recursiveResize=0;html=1;whiteSpace=wrap;fontSize=16;fillColor=#647687;fontColor=#ffffff;" vertex="1" parent="1">
          <mxGeometry x="1366" y="2356" width="522" height="181" as="geometry" />
        </mxCell>
        <mxCell id="U-dQp2Zvjfx5eXS3F79k-229" value="Tipologia Inserzione" style="strokeWidth=1;html=1;shadow=0;dashed=0;shape=mxgraph.ios.iComboBox;spacingTop=2;spacingLeft=2;align=left;strokeColor=#444444;fontColor=#666666;buttonText=;fontSize=8;fillColor=#dddddd;fillColor2=#3D5565;sketch=0;whiteSpace=wrap;" vertex="1" parent="1">
          <mxGeometry x="1450.5" y="2381" width="98" height="20" as="geometry" />
        </mxCell>
        <mxCell id="U-dQp2Zvjfx5eXS3F79k-230" value="Numero di stanze" style="strokeWidth=1;html=1;shadow=0;dashed=0;shape=mxgraph.ios.iComboBox;spacingTop=2;spacingLeft=2;align=left;strokeColor=#444444;fontColor=#666666;buttonText=;fontSize=8;fillColor=#dddddd;fillColor2=#3D5565;sketch=0;whiteSpace=wrap;" vertex="1" parent="1">
          <mxGeometry x="1576.5" y="2381" width="98" height="20" as="geometry" />
        </mxCell>
        <mxCell id="U-dQp2Zvjfx5eXS3F79k-231" value="Classe energetica" style="strokeWidth=1;html=1;shadow=0;dashed=0;shape=mxgraph.ios.iComboBox;spacingTop=2;spacingLeft=2;align=left;strokeColor=#444444;fontColor=#666666;buttonText=;fontSize=8;fillColor=#dddddd;fillColor2=#3D5565;sketch=0;whiteSpace=wrap;" vertex="1" parent="1">
          <mxGeometry x="1705.5" y="2381" width="98" height="20" as="geometry" />
        </mxCell>
        <mxCell id="U-dQp2Zvjfx5eXS3F79k-232" value="Città" style="strokeWidth=1;html=1;shadow=0;dashed=0;shape=mxgraph.ios.iComboBox;spacingTop=2;spacingLeft=2;align=left;strokeColor=#444444;fontColor=#666666;buttonText=;fontSize=8;fillColor=#dddddd;fillColor2=#3D5565;sketch=0;whiteSpace=wrap;" vertex="1" parent="1">
          <mxGeometry x="1450.5" y="2435" width="98" height="20" as="geometry" />
        </mxCell>
        <mxCell id="U-dQp2Zvjfx5eXS3F79k-234" value="" style="dashed=0;verticalLabelPosition=bottom;verticalAlign=top;align=center;shape=mxgraph.gmdl.slider2;barPos=17.26;strokeColor=#3F51B5;opacity=100;strokeWidth=2;fillColor=#3F51B5;handleSize=20;shadow=0;html=1;fontSize=16;" vertex="1" parent="1">
          <mxGeometry x="1497" y="2510" width="95" height="20" as="geometry" />
        </mxCell>
        <mxCell id="U-dQp2Zvjfx5eXS3F79k-235" value="&lt;font color=&quot;#000000&quot; style=&quot;font-size: 8px;&quot;&gt;&lt;b&gt;Prezzo Minimo: 10.000€&lt;/b&gt;&lt;/font&gt;" style="text;html=1;align=center;verticalAlign=middle;resizable=0;points=[];autosize=1;strokeColor=none;fillColor=none;fontSize=16;" vertex="1" parent="1">
          <mxGeometry x="1488" y="2483" width="109" height="31" as="geometry" />
        </mxCell>
        <mxCell id="U-dQp2Zvjfx5eXS3F79k-236" value="" style="dashed=0;verticalLabelPosition=bottom;verticalAlign=top;align=center;shape=mxgraph.gmdl.slider2;barPos=37.89;strokeColor=#3F51B5;opacity=100;strokeWidth=2;fillColor=#3F51B5;handleSize=20;shadow=0;html=1;fontSize=16;" vertex="1" parent="1">
          <mxGeometry x="1646" y="2510" width="95" height="20" as="geometry" />
        </mxCell>
        <mxCell id="U-dQp2Zvjfx5eXS3F79k-237" value="&lt;font color=&quot;#000000&quot; style=&quot;font-size: 8px;&quot;&gt;&lt;b&gt;Prezzo Massimo: 50.000€&lt;/b&gt;&lt;/font&gt;" style="text;html=1;align=center;verticalAlign=middle;resizable=0;points=[];autosize=1;strokeColor=none;fillColor=none;fontSize=16;" vertex="1" parent="1">
          <mxGeometry x="1633" y="2483" width="116" height="31" as="geometry" />
        </mxCell>
        <mxCell id="U-dQp2Zvjfx5eXS3F79k-238" value="Comune" style="strokeWidth=1;html=1;shadow=0;dashed=0;shape=mxgraph.ios.iComboBox;spacingTop=2;spacingLeft=2;align=left;strokeColor=#444444;fontColor=#666666;buttonText=;fontSize=8;fillColor=#dddddd;fillColor2=#3D5565;sketch=0;whiteSpace=wrap;" vertex="1" parent="1">
          <mxGeometry x="1577" y="2435" width="98" height="20" as="geometry" />
        </mxCell>
        <mxCell id="U-dQp2Zvjfx5eXS3F79k-239" value="" style="sketch=0;html=1;aspect=fixed;strokeColor=none;shadow=0;fillColor=#3B8DF1;verticalAlign=top;labelPosition=center;verticalLabelPosition=bottom;shape=mxgraph.gcp2.search;fontSize=16;" vertex="1" parent="1">
          <mxGeometry x="1837" y="2491" width="38.61" height="39" as="geometry" />
        </mxCell>
        <mxCell id="U-dQp2Zvjfx5eXS3F79k-240" value="Superficie" style="strokeWidth=1;html=1;shadow=0;dashed=0;shape=mxgraph.ios.iComboBox;spacingTop=2;spacingLeft=2;align=left;strokeColor=#444444;fontColor=#666666;buttonText=;fontSize=8;fillColor=#dddddd;fillColor2=#3D5565;sketch=0;whiteSpace=wrap;" vertex="1" parent="1">
          <mxGeometry x="1705.5" y="2435" width="98" height="20" as="geometry" />
        </mxCell>
        <mxCell id="U-dQp2Zvjfx5eXS3F79k-241" value="" style="shape=mxgraph.mockup.containers.marginRect;rectMarginTop=10;strokeColor=#666666;strokeWidth=1;dashed=0;rounded=1;arcSize=5;recursiveResize=0;html=1;whiteSpace=wrap;fontSize=16;" vertex="1" parent="1">
          <mxGeometry x="1381.5" y="2617" width="149" height="159" as="geometry" />
        </mxCell>
        <mxCell id="U-dQp2Zvjfx5eXS3F79k-242" value="" style="sketch=0;pointerEvents=1;shadow=0;dashed=0;html=1;strokeColor=none;labelPosition=center;verticalLabelPosition=bottom;verticalAlign=top;outlineConnect=0;align=center;shape=mxgraph.office.concepts.home_page;fillColor=#2072B8;fontSize=16;" vertex="1" parent="1">
          <mxGeometry x="1386.5" y="2631" width="53" height="43" as="geometry" />
        </mxCell>
        <mxCell id="U-dQp2Zvjfx5eXS3F79k-243" value="Prezzo: 150.000€&lt;br&gt;Mq: 120&lt;br&gt;Posizione: Torino" style="text;html=1;align=left;verticalAlign=middle;resizable=0;points=[];autosize=1;strokeColor=none;fillColor=none;fontSize=16;" vertex="1" parent="1">
          <mxGeometry x="1386.5" y="2681" width="146" height="70" as="geometry" />
        </mxCell>
        <mxCell id="U-dQp2Zvjfx5eXS3F79k-253" value="" style="shape=mxgraph.mockup.containers.marginRect;rectMarginTop=10;strokeColor=#666666;strokeWidth=1;dashed=0;rounded=1;arcSize=5;recursiveResize=0;html=1;whiteSpace=wrap;fontSize=16;" vertex="1" parent="1">
          <mxGeometry x="1552" y="2617" width="149" height="159" as="geometry" />
        </mxCell>
        <mxCell id="U-dQp2Zvjfx5eXS3F79k-254" value="" style="sketch=0;pointerEvents=1;shadow=0;dashed=0;html=1;strokeColor=none;labelPosition=center;verticalLabelPosition=bottom;verticalAlign=top;outlineConnect=0;align=center;shape=mxgraph.office.concepts.home_page;fillColor=#2072B8;fontSize=16;" vertex="1" parent="1">
          <mxGeometry x="1557" y="2631" width="53" height="43" as="geometry" />
        </mxCell>
        <mxCell id="U-dQp2Zvjfx5eXS3F79k-255" value="Prezzo: 150.000€&lt;br&gt;Mq: 120&lt;br&gt;Posizione: Torino" style="text;html=1;align=left;verticalAlign=middle;resizable=0;points=[];autosize=1;strokeColor=none;fillColor=none;fontSize=16;" vertex="1" parent="1">
          <mxGeometry x="1557" y="2681" width="146" height="70" as="geometry" />
        </mxCell>
        <mxCell id="U-dQp2Zvjfx5eXS3F79k-256" value="" style="shape=mxgraph.mockup.containers.marginRect;rectMarginTop=10;strokeColor=#666666;strokeWidth=1;dashed=0;rounded=1;arcSize=5;recursiveResize=0;html=1;whiteSpace=wrap;fontSize=16;" vertex="1" parent="1">
          <mxGeometry x="1721.5" y="2617" width="149" height="159" as="geometry" />
        </mxCell>
        <mxCell id="U-dQp2Zvjfx5eXS3F79k-257" value="" style="sketch=0;pointerEvents=1;shadow=0;dashed=0;html=1;strokeColor=none;labelPosition=center;verticalLabelPosition=bottom;verticalAlign=top;outlineConnect=0;align=center;shape=mxgraph.office.concepts.home_page;fillColor=#2072B8;fontSize=16;" vertex="1" parent="1">
          <mxGeometry x="1726.5" y="2631" width="53" height="43" as="geometry" />
        </mxCell>
        <mxCell id="U-dQp2Zvjfx5eXS3F79k-258" value="Prezzo: 150.000€&lt;br&gt;Mq: 120&lt;br&gt;Posizione: Torino" style="text;html=1;align=left;verticalAlign=middle;resizable=0;points=[];autosize=1;strokeColor=none;fillColor=none;fontSize=16;" vertex="1" parent="1">
          <mxGeometry x="1726.5" y="2681" width="146" height="70" as="geometry" />
        </mxCell>
        <mxCell id="U-dQp2Zvjfx5eXS3F79k-262" value="Fail Research Page" style="strokeWidth=1;shadow=0;dashed=0;align=center;html=1;shape=mxgraph.mockup.containers.window;align=left;verticalAlign=top;spacingLeft=8;strokeColor2=#008cff;strokeColor3=#c4c4c4;fontColor=#666666;mainText=;fontSize=17;labelBackgroundColor=none;whiteSpace=wrap;" vertex="1" parent="1">
          <mxGeometry x="1966" y="2328" width="536" height="526" as="geometry" />
        </mxCell>
        <mxCell id="U-dQp2Zvjfx5eXS3F79k-263" value="" style="shape=mxgraph.mockup.containers.marginRect;rectMarginTop=10;strokeColor=#314354;strokeWidth=1;dashed=0;rounded=1;arcSize=5;recursiveResize=0;html=1;whiteSpace=wrap;fontSize=16;fillColor=#647687;fontColor=#ffffff;" vertex="1" parent="1">
          <mxGeometry x="1973" y="2358" width="522" height="181" as="geometry" />
        </mxCell>
        <mxCell id="U-dQp2Zvjfx5eXS3F79k-264" value="Tipologia Inserzione" style="strokeWidth=1;html=1;shadow=0;dashed=0;shape=mxgraph.ios.iComboBox;spacingTop=2;spacingLeft=2;align=left;strokeColor=#444444;fontColor=#666666;buttonText=;fontSize=8;fillColor=#dddddd;fillColor2=#3D5565;sketch=0;whiteSpace=wrap;" vertex="1" parent="1">
          <mxGeometry x="2057.5" y="2383" width="98" height="20" as="geometry" />
        </mxCell>
        <mxCell id="U-dQp2Zvjfx5eXS3F79k-265" value="Numero di stanze" style="strokeWidth=1;html=1;shadow=0;dashed=0;shape=mxgraph.ios.iComboBox;spacingTop=2;spacingLeft=2;align=left;strokeColor=#444444;fontColor=#666666;buttonText=;fontSize=8;fillColor=#dddddd;fillColor2=#3D5565;sketch=0;whiteSpace=wrap;" vertex="1" parent="1">
          <mxGeometry x="2183.5" y="2383" width="98" height="20" as="geometry" />
        </mxCell>
        <mxCell id="U-dQp2Zvjfx5eXS3F79k-266" value="Classe energetica" style="strokeWidth=1;html=1;shadow=0;dashed=0;shape=mxgraph.ios.iComboBox;spacingTop=2;spacingLeft=2;align=left;strokeColor=#444444;fontColor=#666666;buttonText=;fontSize=8;fillColor=#dddddd;fillColor2=#3D5565;sketch=0;whiteSpace=wrap;" vertex="1" parent="1">
          <mxGeometry x="2312.5" y="2383" width="98" height="20" as="geometry" />
        </mxCell>
        <mxCell id="U-dQp2Zvjfx5eXS3F79k-267" value="Città" style="strokeWidth=1;html=1;shadow=0;dashed=0;shape=mxgraph.ios.iComboBox;spacingTop=2;spacingLeft=2;align=left;strokeColor=#444444;fontColor=#666666;buttonText=;fontSize=8;fillColor=#dddddd;fillColor2=#3D5565;sketch=0;whiteSpace=wrap;" vertex="1" parent="1">
          <mxGeometry x="2057.5" y="2437" width="98" height="20" as="geometry" />
        </mxCell>
        <mxCell id="U-dQp2Zvjfx5eXS3F79k-268" value="" style="dashed=0;verticalLabelPosition=bottom;verticalAlign=top;align=center;shape=mxgraph.gmdl.slider2;barPos=17.26;strokeColor=#3F51B5;opacity=100;strokeWidth=2;fillColor=#3F51B5;handleSize=20;shadow=0;html=1;fontSize=16;" vertex="1" parent="1">
          <mxGeometry x="2104" y="2512" width="95" height="20" as="geometry" />
        </mxCell>
        <mxCell id="U-dQp2Zvjfx5eXS3F79k-269" value="&lt;font color=&quot;#000000&quot; style=&quot;font-size: 8px;&quot;&gt;&lt;b&gt;Prezzo Minimo: 10.000€&lt;/b&gt;&lt;/font&gt;" style="text;html=1;align=center;verticalAlign=middle;resizable=0;points=[];autosize=1;strokeColor=none;fillColor=none;fontSize=16;" vertex="1" parent="1">
          <mxGeometry x="2095" y="2485" width="109" height="31" as="geometry" />
        </mxCell>
        <mxCell id="U-dQp2Zvjfx5eXS3F79k-270" value="" style="dashed=0;verticalLabelPosition=bottom;verticalAlign=top;align=center;shape=mxgraph.gmdl.slider2;barPos=37.89;strokeColor=#3F51B5;opacity=100;strokeWidth=2;fillColor=#3F51B5;handleSize=20;shadow=0;html=1;fontSize=16;" vertex="1" parent="1">
          <mxGeometry x="2253" y="2512" width="95" height="20" as="geometry" />
        </mxCell>
        <mxCell id="U-dQp2Zvjfx5eXS3F79k-271" value="&lt;font color=&quot;#000000&quot; style=&quot;font-size: 8px;&quot;&gt;&lt;b&gt;Prezzo Massimo: 50.000€&lt;/b&gt;&lt;/font&gt;" style="text;html=1;align=center;verticalAlign=middle;resizable=0;points=[];autosize=1;strokeColor=none;fillColor=none;fontSize=16;" vertex="1" parent="1">
          <mxGeometry x="2240" y="2485" width="116" height="31" as="geometry" />
        </mxCell>
        <mxCell id="U-dQp2Zvjfx5eXS3F79k-272" value="Comune" style="strokeWidth=1;html=1;shadow=0;dashed=0;shape=mxgraph.ios.iComboBox;spacingTop=2;spacingLeft=2;align=left;strokeColor=#444444;fontColor=#666666;buttonText=;fontSize=8;fillColor=#dddddd;fillColor2=#3D5565;sketch=0;whiteSpace=wrap;" vertex="1" parent="1">
          <mxGeometry x="2184" y="2437" width="98" height="20" as="geometry" />
        </mxCell>
        <mxCell id="U-dQp2Zvjfx5eXS3F79k-273" value="" style="sketch=0;html=1;aspect=fixed;strokeColor=none;shadow=0;fillColor=#3B8DF1;verticalAlign=top;labelPosition=center;verticalLabelPosition=bottom;shape=mxgraph.gcp2.search;fontSize=16;" vertex="1" parent="1">
          <mxGeometry x="2444" y="2493" width="38.61" height="39" as="geometry" />
        </mxCell>
        <mxCell id="U-dQp2Zvjfx5eXS3F79k-274" value="Superficie" style="strokeWidth=1;html=1;shadow=0;dashed=0;shape=mxgraph.ios.iComboBox;spacingTop=2;spacingLeft=2;align=left;strokeColor=#444444;fontColor=#666666;buttonText=;fontSize=8;fillColor=#dddddd;fillColor2=#3D5565;sketch=0;whiteSpace=wrap;" vertex="1" parent="1">
          <mxGeometry x="2312.5" y="2437" width="98" height="20" as="geometry" />
        </mxCell>
        <mxCell id="U-dQp2Zvjfx5eXS3F79k-284" value="&lt;font style=&quot;font-size: 27px;&quot;&gt;La ricerca non ha prodotto risultati&lt;/font&gt;" style="text;html=1;align=left;verticalAlign=middle;resizable=0;points=[];autosize=1;strokeColor=none;fillColor=none;fontSize=16;" vertex="1" parent="1">
          <mxGeometry x="1973" y="2589" width="426" height="44" as="geometry" />
        </mxCell>
        <mxCell id="U-dQp2Zvjfx5eXS3F79k-289" style="edgeStyle=none;curved=1;rounded=0;orthogonalLoop=1;jettySize=auto;html=1;entryX=-0.001;entryY=0.023;entryDx=0;entryDy=0;entryPerimeter=0;fontSize=12;startSize=8;endSize=8;" edge="1" parent="1" source="U-dQp2Zvjfx5eXS3F79k-239" target="U-dQp2Zvjfx5eXS3F79k-262">
          <mxGeometry relative="1" as="geometry" />
        </mxCell>
        <mxCell id="U-dQp2Zvjfx5eXS3F79k-290" value="La ricerca viene effettuata se:&lt;br&gt;- Il prezzo minimo è inferiore al prezzo massimo;&lt;br&gt;- I campi non devono essere necessariamente compilati.&lt;br&gt;- La combobox &quot;Comune&quot; viene riempita in base alla scelta di &quot;Città&quot;.&amp;nbsp;" style="shape=note;strokeWidth=2;fontSize=14;size=20;whiteSpace=wrap;html=1;fillColor=#fff2cc;strokeColor=#d6b656;fontColor=#666600;align=left;" vertex="1" parent="1">
          <mxGeometry x="1394" y="2839" width="236" height="242" as="geometry" />
        </mxCell>
        <mxCell id="U-dQp2Zvjfx5eXS3F79k-47" value="" style="shape=table;startSize=0;container=1;collapsible=0;childLayout=tableLayout;fontSize=16;" vertex="1" parent="1">
          <mxGeometry x="-433" y="2343" width="990" height="320" as="geometry" />
        </mxCell>
        <mxCell id="U-dQp2Zvjfx5eXS3F79k-48" value="" style="shape=tableRow;horizontal=0;startSize=0;swimlaneHead=0;swimlaneBody=0;strokeColor=inherit;top=0;left=0;bottom=0;right=0;collapsible=0;dropTarget=0;fillColor=none;points=[[0,0.5],[1,0.5]];portConstraint=eastwest;fontSize=16;" vertex="1" parent="U-dQp2Zvjfx5eXS3F79k-47">
          <mxGeometry width="990" height="40" as="geometry" />
        </mxCell>
        <mxCell id="U-dQp2Zvjfx5eXS3F79k-49" value="UseCase#1" style="shape=partialRectangle;html=1;whiteSpace=wrap;connectable=0;strokeColor=inherit;overflow=hidden;fillColor=none;top=0;left=0;bottom=0;right=0;pointerEvents=1;fontSize=16;" vertex="1" parent="U-dQp2Zvjfx5eXS3F79k-48">
          <mxGeometry width="495" height="40" as="geometry">
            <mxRectangle width="495" height="40" as="alternateBounds" />
          </mxGeometry>
        </mxCell>
        <mxCell id="U-dQp2Zvjfx5eXS3F79k-50" value="Ricercare immobile" style="shape=partialRectangle;html=1;whiteSpace=wrap;connectable=0;strokeColor=inherit;overflow=hidden;fillColor=none;top=0;left=0;bottom=0;right=0;pointerEvents=1;fontSize=16;" vertex="1" parent="U-dQp2Zvjfx5eXS3F79k-48">
          <mxGeometry x="495" width="495" height="40" as="geometry">
            <mxRectangle width="495" height="40" as="alternateBounds" />
          </mxGeometry>
        </mxCell>
        <mxCell id="U-dQp2Zvjfx5eXS3F79k-51" value="" style="shape=tableRow;horizontal=0;startSize=0;swimlaneHead=0;swimlaneBody=0;strokeColor=inherit;top=0;left=0;bottom=0;right=0;collapsible=0;dropTarget=0;fillColor=none;points=[[0,0.5],[1,0.5]];portConstraint=eastwest;fontSize=16;" vertex="1" parent="U-dQp2Zvjfx5eXS3F79k-47">
          <mxGeometry y="40" width="990" height="43" as="geometry" />
        </mxCell>
        <mxCell id="U-dQp2Zvjfx5eXS3F79k-52" value="Actor" style="shape=partialRectangle;html=1;whiteSpace=wrap;connectable=0;strokeColor=inherit;overflow=hidden;fillColor=none;top=0;left=0;bottom=0;right=0;pointerEvents=1;fontSize=16;" vertex="1" parent="U-dQp2Zvjfx5eXS3F79k-51">
          <mxGeometry width="495" height="43" as="geometry">
            <mxRectangle width="495" height="43" as="alternateBounds" />
          </mxGeometry>
        </mxCell>
        <mxCell id="U-dQp2Zvjfx5eXS3F79k-53" value="Utente" style="shape=partialRectangle;html=1;whiteSpace=wrap;connectable=0;strokeColor=inherit;overflow=hidden;fillColor=none;top=0;left=0;bottom=0;right=0;pointerEvents=1;fontSize=16;" vertex="1" parent="U-dQp2Zvjfx5eXS3F79k-51">
          <mxGeometry x="495" width="495" height="43" as="geometry">
            <mxRectangle width="495" height="43" as="alternateBounds" />
          </mxGeometry>
        </mxCell>
        <mxCell id="U-dQp2Zvjfx5eXS3F79k-54" value="" style="shape=tableRow;horizontal=0;startSize=0;swimlaneHead=0;swimlaneBody=0;strokeColor=inherit;top=0;left=0;bottom=0;right=0;collapsible=0;dropTarget=0;fillColor=none;points=[[0,0.5],[1,0.5]];portConstraint=eastwest;fontSize=16;" vertex="1" parent="U-dQp2Zvjfx5eXS3F79k-47">
          <mxGeometry y="83" width="990" height="37" as="geometry" />
        </mxCell>
        <mxCell id="U-dQp2Zvjfx5eXS3F79k-55" value="Goal" style="shape=partialRectangle;html=1;whiteSpace=wrap;connectable=0;strokeColor=inherit;overflow=hidden;fillColor=none;top=0;left=0;bottom=0;right=0;pointerEvents=1;fontSize=16;" vertex="1" parent="U-dQp2Zvjfx5eXS3F79k-54">
          <mxGeometry width="495" height="37" as="geometry">
            <mxRectangle width="495" height="37" as="alternateBounds" />
          </mxGeometry>
        </mxCell>
        <mxCell id="U-dQp2Zvjfx5eXS3F79k-56" value="Eseguire una ricerca avanzata di immobili" style="shape=partialRectangle;html=1;whiteSpace=wrap;connectable=0;strokeColor=inherit;overflow=hidden;fillColor=none;top=0;left=0;bottom=0;right=0;pointerEvents=1;fontSize=16;" vertex="1" parent="U-dQp2Zvjfx5eXS3F79k-54">
          <mxGeometry x="495" width="495" height="37" as="geometry">
            <mxRectangle width="495" height="37" as="alternateBounds" />
          </mxGeometry>
        </mxCell>
        <mxCell id="U-dQp2Zvjfx5eXS3F79k-57" value="" style="shape=tableRow;horizontal=0;startSize=0;swimlaneHead=0;swimlaneBody=0;strokeColor=inherit;top=0;left=0;bottom=0;right=0;collapsible=0;dropTarget=0;fillColor=none;points=[[0,0.5],[1,0.5]];portConstraint=eastwest;fontSize=16;" vertex="1" parent="U-dQp2Zvjfx5eXS3F79k-47">
          <mxGeometry y="120" width="990" height="40" as="geometry" />
        </mxCell>
        <mxCell id="U-dQp2Zvjfx5eXS3F79k-58" value="Trigger" style="shape=partialRectangle;html=1;whiteSpace=wrap;connectable=0;strokeColor=inherit;overflow=hidden;fillColor=none;top=0;left=0;bottom=0;right=0;pointerEvents=1;fontSize=16;" vertex="1" parent="U-dQp2Zvjfx5eXS3F79k-57">
          <mxGeometry width="495" height="40" as="geometry">
            <mxRectangle width="495" height="40" as="alternateBounds" />
          </mxGeometry>
        </mxCell>
        <mxCell id="U-dQp2Zvjfx5eXS3F79k-59" value="Viene cliccato &quot;Ricerca Avanzata&quot; in Home Page" style="shape=partialRectangle;html=1;whiteSpace=wrap;connectable=0;strokeColor=inherit;overflow=hidden;fillColor=none;top=0;left=0;bottom=0;right=0;pointerEvents=1;fontSize=16;" vertex="1" parent="U-dQp2Zvjfx5eXS3F79k-57">
          <mxGeometry x="495" width="495" height="40" as="geometry">
            <mxRectangle width="495" height="40" as="alternateBounds" />
          </mxGeometry>
        </mxCell>
        <mxCell id="U-dQp2Zvjfx5eXS3F79k-60" value="" style="shape=tableRow;horizontal=0;startSize=0;swimlaneHead=0;swimlaneBody=0;strokeColor=inherit;top=0;left=0;bottom=0;right=0;collapsible=0;dropTarget=0;fillColor=none;points=[[0,0.5],[1,0.5]];portConstraint=eastwest;fontSize=16;" vertex="1" parent="U-dQp2Zvjfx5eXS3F79k-47">
          <mxGeometry y="160" width="990" height="40" as="geometry" />
        </mxCell>
        <mxCell id="U-dQp2Zvjfx5eXS3F79k-61" value="Precondition" style="shape=partialRectangle;html=1;whiteSpace=wrap;connectable=0;strokeColor=inherit;overflow=hidden;fillColor=none;top=0;left=0;bottom=0;right=0;pointerEvents=1;fontSize=16;" vertex="1" parent="U-dQp2Zvjfx5eXS3F79k-60">
          <mxGeometry width="495" height="40" as="geometry">
            <mxRectangle width="495" height="40" as="alternateBounds" />
          </mxGeometry>
        </mxCell>
        <mxCell id="U-dQp2Zvjfx5eXS3F79k-62" value="-" style="shape=partialRectangle;html=1;whiteSpace=wrap;connectable=0;strokeColor=inherit;overflow=hidden;fillColor=none;top=0;left=0;bottom=0;right=0;pointerEvents=1;fontSize=16;" vertex="1" parent="U-dQp2Zvjfx5eXS3F79k-60">
          <mxGeometry x="495" width="495" height="40" as="geometry">
            <mxRectangle width="495" height="40" as="alternateBounds" />
          </mxGeometry>
        </mxCell>
        <mxCell id="U-dQp2Zvjfx5eXS3F79k-63" value="" style="shape=tableRow;horizontal=0;startSize=0;swimlaneHead=0;swimlaneBody=0;strokeColor=inherit;top=0;left=0;bottom=0;right=0;collapsible=0;dropTarget=0;fillColor=none;points=[[0,0.5],[1,0.5]];portConstraint=eastwest;fontSize=16;" vertex="1" parent="U-dQp2Zvjfx5eXS3F79k-47">
          <mxGeometry y="200" width="990" height="40" as="geometry" />
        </mxCell>
        <mxCell id="U-dQp2Zvjfx5eXS3F79k-64" value="Success" style="shape=partialRectangle;html=1;whiteSpace=wrap;connectable=0;strokeColor=inherit;overflow=hidden;fillColor=none;top=0;left=0;bottom=0;right=0;pointerEvents=1;fontSize=16;" vertex="1" parent="U-dQp2Zvjfx5eXS3F79k-63">
          <mxGeometry width="495" height="40" as="geometry">
            <mxRectangle width="495" height="40" as="alternateBounds" />
          </mxGeometry>
        </mxCell>
        <mxCell id="U-dQp2Zvjfx5eXS3F79k-65" value="Il sistema mostra gli immobili per la ricerca effettuata" style="shape=partialRectangle;html=1;whiteSpace=wrap;connectable=0;strokeColor=inherit;overflow=hidden;fillColor=none;top=0;left=0;bottom=0;right=0;pointerEvents=1;fontSize=16;" vertex="1" parent="U-dQp2Zvjfx5eXS3F79k-63">
          <mxGeometry x="495" width="495" height="40" as="geometry">
            <mxRectangle width="495" height="40" as="alternateBounds" />
          </mxGeometry>
        </mxCell>
        <mxCell id="U-dQp2Zvjfx5eXS3F79k-66" value="" style="shape=tableRow;horizontal=0;startSize=0;swimlaneHead=0;swimlaneBody=0;strokeColor=inherit;top=0;left=0;bottom=0;right=0;collapsible=0;dropTarget=0;fillColor=none;points=[[0,0.5],[1,0.5]];portConstraint=eastwest;fontSize=16;" vertex="1" parent="U-dQp2Zvjfx5eXS3F79k-47">
          <mxGeometry y="240" width="990" height="40" as="geometry" />
        </mxCell>
        <mxCell id="U-dQp2Zvjfx5eXS3F79k-67" value="Fail" style="shape=partialRectangle;html=1;whiteSpace=wrap;connectable=0;strokeColor=inherit;overflow=hidden;fillColor=none;top=0;left=0;bottom=0;right=0;pointerEvents=1;fontSize=16;" vertex="1" parent="U-dQp2Zvjfx5eXS3F79k-66">
          <mxGeometry width="495" height="40" as="geometry">
            <mxRectangle width="495" height="40" as="alternateBounds" />
          </mxGeometry>
        </mxCell>
        <mxCell id="U-dQp2Zvjfx5eXS3F79k-68" value="Il sistema richiede di effettuare la ricerca con diversi filtri applicati" style="shape=partialRectangle;html=1;whiteSpace=wrap;connectable=0;strokeColor=inherit;overflow=hidden;fillColor=none;top=0;left=0;bottom=0;right=0;pointerEvents=1;fontSize=16;" vertex="1" parent="U-dQp2Zvjfx5eXS3F79k-66">
          <mxGeometry x="495" width="495" height="40" as="geometry">
            <mxRectangle width="495" height="40" as="alternateBounds" />
          </mxGeometry>
        </mxCell>
        <mxCell id="U-dQp2Zvjfx5eXS3F79k-69" value="" style="shape=tableRow;horizontal=0;startSize=0;swimlaneHead=0;swimlaneBody=0;strokeColor=inherit;top=0;left=0;bottom=0;right=0;collapsible=0;dropTarget=0;fillColor=none;points=[[0,0.5],[1,0.5]];portConstraint=eastwest;fontSize=16;" vertex="1" parent="U-dQp2Zvjfx5eXS3F79k-47">
          <mxGeometry y="280" width="990" height="40" as="geometry" />
        </mxCell>
        <mxCell id="U-dQp2Zvjfx5eXS3F79k-70" value="Main" style="shape=partialRectangle;html=1;whiteSpace=wrap;connectable=0;strokeColor=inherit;overflow=hidden;fillColor=none;top=0;left=0;bottom=0;right=0;pointerEvents=1;fontSize=16;" vertex="1" parent="U-dQp2Zvjfx5eXS3F79k-69">
          <mxGeometry width="495" height="40" as="geometry">
            <mxRectangle width="495" height="40" as="alternateBounds" />
          </mxGeometry>
        </mxCell>
        <mxCell id="U-dQp2Zvjfx5eXS3F79k-71" value="" style="shape=partialRectangle;html=1;whiteSpace=wrap;connectable=0;strokeColor=inherit;overflow=hidden;fillColor=none;top=0;left=0;bottom=0;right=0;pointerEvents=1;fontSize=16;" vertex="1" parent="U-dQp2Zvjfx5eXS3F79k-69">
          <mxGeometry x="495" width="495" height="40" as="geometry">
            <mxRectangle width="495" height="40" as="alternateBounds" />
          </mxGeometry>
        </mxCell>
        <mxCell id="U-dQp2Zvjfx5eXS3F79k-72" value="" style="shape=table;startSize=0;container=1;collapsible=0;childLayout=tableLayout;fontSize=16;" vertex="1" parent="1">
          <mxGeometry x="61.99999999999997" y="2664" width="495.14708219299007" height="246.48214285714312" as="geometry" />
        </mxCell>
        <mxCell id="U-dQp2Zvjfx5eXS3F79k-73" value="" style="shape=tableRow;horizontal=0;startSize=0;swimlaneHead=0;swimlaneBody=0;strokeColor=inherit;top=0;left=0;bottom=0;right=0;collapsible=0;dropTarget=0;fillColor=none;points=[[0,0.5],[1,0.5]];portConstraint=eastwest;fontSize=16;" vertex="1" parent="U-dQp2Zvjfx5eXS3F79k-72">
          <mxGeometry width="495.14708219299007" height="40" as="geometry" />
        </mxCell>
        <mxCell id="U-dQp2Zvjfx5eXS3F79k-74" value="Step" style="shape=partialRectangle;html=1;whiteSpace=wrap;connectable=0;strokeColor=inherit;overflow=hidden;fillColor=none;top=0;left=0;bottom=0;right=0;pointerEvents=1;fontSize=16;" vertex="1" parent="U-dQp2Zvjfx5eXS3F79k-73">
          <mxGeometry width="167" height="40" as="geometry">
            <mxRectangle width="167" height="40" as="alternateBounds" />
          </mxGeometry>
        </mxCell>
        <mxCell id="U-dQp2Zvjfx5eXS3F79k-75" value="Utente" style="shape=partialRectangle;html=1;whiteSpace=wrap;connectable=0;strokeColor=inherit;overflow=hidden;fillColor=none;top=0;left=0;bottom=0;right=0;pointerEvents=1;fontSize=16;" vertex="1" parent="U-dQp2Zvjfx5eXS3F79k-73">
          <mxGeometry x="167" width="167" height="40" as="geometry">
            <mxRectangle width="167" height="40" as="alternateBounds" />
          </mxGeometry>
        </mxCell>
        <mxCell id="U-dQp2Zvjfx5eXS3F79k-101" value="System" style="shape=partialRectangle;html=1;whiteSpace=wrap;connectable=0;strokeColor=inherit;overflow=hidden;fillColor=none;top=0;left=0;bottom=0;right=0;pointerEvents=1;fontSize=16;" vertex="1" parent="U-dQp2Zvjfx5eXS3F79k-73">
          <mxGeometry x="334" width="161" height="40" as="geometry">
            <mxRectangle width="161" height="40" as="alternateBounds" />
          </mxGeometry>
        </mxCell>
        <mxCell id="U-dQp2Zvjfx5eXS3F79k-77" value="" style="shape=tableRow;horizontal=0;startSize=0;swimlaneHead=0;swimlaneBody=0;strokeColor=inherit;top=0;left=0;bottom=0;right=0;collapsible=0;dropTarget=0;fillColor=none;points=[[0,0.5],[1,0.5]];portConstraint=eastwest;fontSize=16;" vertex="1" parent="U-dQp2Zvjfx5eXS3F79k-72">
          <mxGeometry y="40" width="495.14708219299007" height="40" as="geometry" />
        </mxCell>
        <mxCell id="U-dQp2Zvjfx5eXS3F79k-78" value="1" style="shape=partialRectangle;html=1;whiteSpace=wrap;connectable=0;strokeColor=inherit;overflow=hidden;fillColor=none;top=0;left=0;bottom=0;right=0;pointerEvents=1;fontSize=16;" vertex="1" parent="U-dQp2Zvjfx5eXS3F79k-77">
          <mxGeometry width="167" height="40" as="geometry">
            <mxRectangle width="167" height="40" as="alternateBounds" />
          </mxGeometry>
        </mxCell>
        <mxCell id="U-dQp2Zvjfx5eXS3F79k-79" value="&lt;font style=&quot;font-size: 15px;&quot;&gt;Clicca Ricerca Avanzata in Home Page&lt;/font&gt;" style="shape=partialRectangle;html=1;whiteSpace=wrap;connectable=0;strokeColor=inherit;overflow=hidden;fillColor=none;top=0;left=0;bottom=0;right=0;pointerEvents=1;fontSize=16;" vertex="1" parent="U-dQp2Zvjfx5eXS3F79k-77">
          <mxGeometry x="167" width="167" height="40" as="geometry">
            <mxRectangle width="167" height="40" as="alternateBounds" />
          </mxGeometry>
        </mxCell>
        <mxCell id="U-dQp2Zvjfx5eXS3F79k-102" style="shape=partialRectangle;html=1;whiteSpace=wrap;connectable=0;strokeColor=inherit;overflow=hidden;fillColor=none;top=0;left=0;bottom=0;right=0;pointerEvents=1;fontSize=16;" vertex="1" parent="U-dQp2Zvjfx5eXS3F79k-77">
          <mxGeometry x="334" width="161" height="40" as="geometry">
            <mxRectangle width="161" height="40" as="alternateBounds" />
          </mxGeometry>
        </mxCell>
        <mxCell id="U-dQp2Zvjfx5eXS3F79k-81" value="" style="shape=tableRow;horizontal=0;startSize=0;swimlaneHead=0;swimlaneBody=0;strokeColor=inherit;top=0;left=0;bottom=0;right=0;collapsible=0;dropTarget=0;fillColor=none;points=[[0,0.5],[1,0.5]];portConstraint=eastwest;fontSize=16;" vertex="1" parent="U-dQp2Zvjfx5eXS3F79k-72">
          <mxGeometry y="80" width="495.14708219299007" height="40" as="geometry" />
        </mxCell>
        <mxCell id="U-dQp2Zvjfx5eXS3F79k-82" value="2" style="shape=partialRectangle;html=1;whiteSpace=wrap;connectable=0;strokeColor=inherit;overflow=hidden;fillColor=none;top=0;left=0;bottom=0;right=0;pointerEvents=1;fontSize=16;" vertex="1" parent="U-dQp2Zvjfx5eXS3F79k-81">
          <mxGeometry width="167" height="40" as="geometry">
            <mxRectangle width="167" height="40" as="alternateBounds" />
          </mxGeometry>
        </mxCell>
        <mxCell id="U-dQp2Zvjfx5eXS3F79k-83" value="" style="shape=partialRectangle;html=1;whiteSpace=wrap;connectable=0;strokeColor=inherit;overflow=hidden;fillColor=none;top=0;left=0;bottom=0;right=0;pointerEvents=1;fontSize=16;" vertex="1" parent="U-dQp2Zvjfx5eXS3F79k-81">
          <mxGeometry x="167" width="167" height="40" as="geometry">
            <mxRectangle width="167" height="40" as="alternateBounds" />
          </mxGeometry>
        </mxCell>
        <mxCell id="U-dQp2Zvjfx5eXS3F79k-103" value="Mostra Research Page" style="shape=partialRectangle;html=1;whiteSpace=wrap;connectable=0;strokeColor=inherit;overflow=hidden;fillColor=none;top=0;left=0;bottom=0;right=0;pointerEvents=1;fontSize=16;" vertex="1" parent="U-dQp2Zvjfx5eXS3F79k-81">
          <mxGeometry x="334" width="161" height="40" as="geometry">
            <mxRectangle width="161" height="40" as="alternateBounds" />
          </mxGeometry>
        </mxCell>
        <mxCell id="U-dQp2Zvjfx5eXS3F79k-85" value="" style="shape=tableRow;horizontal=0;startSize=0;swimlaneHead=0;swimlaneBody=0;strokeColor=inherit;top=0;left=0;bottom=0;right=0;collapsible=0;dropTarget=0;fillColor=none;points=[[0,0.5],[1,0.5]];portConstraint=eastwest;fontSize=16;" vertex="1" parent="U-dQp2Zvjfx5eXS3F79k-72">
          <mxGeometry y="120" width="495.14708219299007" height="40" as="geometry" />
        </mxCell>
        <mxCell id="U-dQp2Zvjfx5eXS3F79k-86" value="3" style="shape=partialRectangle;html=1;whiteSpace=wrap;connectable=0;strokeColor=inherit;overflow=hidden;fillColor=none;top=0;left=0;bottom=0;right=0;pointerEvents=1;fontSize=16;" vertex="1" parent="U-dQp2Zvjfx5eXS3F79k-85">
          <mxGeometry width="167" height="40" as="geometry">
            <mxRectangle width="167" height="40" as="alternateBounds" />
          </mxGeometry>
        </mxCell>
        <mxCell id="U-dQp2Zvjfx5eXS3F79k-87" value="Compila i campi" style="shape=partialRectangle;html=1;whiteSpace=wrap;connectable=0;strokeColor=inherit;overflow=hidden;fillColor=none;top=0;left=0;bottom=0;right=0;pointerEvents=1;fontSize=16;" vertex="1" parent="U-dQp2Zvjfx5eXS3F79k-85">
          <mxGeometry x="167" width="167" height="40" as="geometry">
            <mxRectangle width="167" height="40" as="alternateBounds" />
          </mxGeometry>
        </mxCell>
        <mxCell id="U-dQp2Zvjfx5eXS3F79k-104" style="shape=partialRectangle;html=1;whiteSpace=wrap;connectable=0;strokeColor=inherit;overflow=hidden;fillColor=none;top=0;left=0;bottom=0;right=0;pointerEvents=1;fontSize=16;" vertex="1" parent="U-dQp2Zvjfx5eXS3F79k-85">
          <mxGeometry x="334" width="161" height="40" as="geometry">
            <mxRectangle width="161" height="40" as="alternateBounds" />
          </mxGeometry>
        </mxCell>
        <mxCell id="U-dQp2Zvjfx5eXS3F79k-89" value="" style="shape=tableRow;horizontal=0;startSize=0;swimlaneHead=0;swimlaneBody=0;strokeColor=inherit;top=0;left=0;bottom=0;right=0;collapsible=0;dropTarget=0;fillColor=none;points=[[0,0.5],[1,0.5]];portConstraint=eastwest;fontSize=16;" vertex="1" parent="U-dQp2Zvjfx5eXS3F79k-72">
          <mxGeometry y="160" width="495.14708219299007" height="40" as="geometry" />
        </mxCell>
        <mxCell id="U-dQp2Zvjfx5eXS3F79k-90" value="4" style="shape=partialRectangle;html=1;whiteSpace=wrap;connectable=0;strokeColor=inherit;overflow=hidden;fillColor=none;top=0;left=0;bottom=0;right=0;pointerEvents=1;fontSize=16;" vertex="1" parent="U-dQp2Zvjfx5eXS3F79k-89">
          <mxGeometry width="167" height="40" as="geometry">
            <mxRectangle width="167" height="40" as="alternateBounds" />
          </mxGeometry>
        </mxCell>
        <mxCell id="U-dQp2Zvjfx5eXS3F79k-91" value="Preme bottone di ricerca" style="shape=partialRectangle;html=1;whiteSpace=wrap;connectable=0;strokeColor=inherit;overflow=hidden;fillColor=none;top=0;left=0;bottom=0;right=0;pointerEvents=1;fontSize=16;" vertex="1" parent="U-dQp2Zvjfx5eXS3F79k-89">
          <mxGeometry x="167" width="167" height="40" as="geometry">
            <mxRectangle width="167" height="40" as="alternateBounds" />
          </mxGeometry>
        </mxCell>
        <mxCell id="U-dQp2Zvjfx5eXS3F79k-105" style="shape=partialRectangle;html=1;whiteSpace=wrap;connectable=0;strokeColor=inherit;overflow=hidden;fillColor=none;top=0;left=0;bottom=0;right=0;pointerEvents=1;fontSize=16;" vertex="1" parent="U-dQp2Zvjfx5eXS3F79k-89">
          <mxGeometry x="334" width="161" height="40" as="geometry">
            <mxRectangle width="161" height="40" as="alternateBounds" />
          </mxGeometry>
        </mxCell>
        <mxCell id="U-dQp2Zvjfx5eXS3F79k-93" value="" style="shape=tableRow;horizontal=0;startSize=0;swimlaneHead=0;swimlaneBody=0;strokeColor=inherit;top=0;left=0;bottom=0;right=0;collapsible=0;dropTarget=0;fillColor=none;points=[[0,0.5],[1,0.5]];portConstraint=eastwest;fontSize=16;" vertex="1" parent="U-dQp2Zvjfx5eXS3F79k-72">
          <mxGeometry y="200" width="495.14708219299007" height="46" as="geometry" />
        </mxCell>
        <mxCell id="U-dQp2Zvjfx5eXS3F79k-94" value="5" style="shape=partialRectangle;html=1;whiteSpace=wrap;connectable=0;strokeColor=inherit;overflow=hidden;fillColor=none;top=0;left=0;bottom=0;right=0;pointerEvents=1;fontSize=16;" vertex="1" parent="U-dQp2Zvjfx5eXS3F79k-93">
          <mxGeometry width="167" height="46" as="geometry">
            <mxRectangle width="167" height="46" as="alternateBounds" />
          </mxGeometry>
        </mxCell>
        <mxCell id="U-dQp2Zvjfx5eXS3F79k-95" value="" style="shape=partialRectangle;html=1;whiteSpace=wrap;connectable=0;strokeColor=inherit;overflow=hidden;fillColor=none;top=0;left=0;bottom=0;right=0;pointerEvents=1;fontSize=16;" vertex="1" parent="U-dQp2Zvjfx5eXS3F79k-93">
          <mxGeometry x="167" width="167" height="46" as="geometry">
            <mxRectangle width="167" height="46" as="alternateBounds" />
          </mxGeometry>
        </mxCell>
        <mxCell id="U-dQp2Zvjfx5eXS3F79k-106" value="Mostra elenco di case disponibili" style="shape=partialRectangle;html=1;whiteSpace=wrap;connectable=0;strokeColor=inherit;overflow=hidden;fillColor=none;top=0;left=0;bottom=0;right=0;pointerEvents=1;fontSize=16;" vertex="1" parent="U-dQp2Zvjfx5eXS3F79k-93">
          <mxGeometry x="334" width="161" height="46" as="geometry">
            <mxRectangle width="161" height="46" as="alternateBounds" />
          </mxGeometry>
        </mxCell>
        <mxCell id="U-dQp2Zvjfx5eXS3F79k-312" value="&lt;font style=&quot;font-size: 15px;&quot;&gt;Extension1:&lt;br&gt;Case non disponibili&lt;/font&gt;" style="rounded=0;whiteSpace=wrap;html=1;fontSize=16;" vertex="1" parent="1">
          <mxGeometry x="-61" y="3029" width="120" height="60" as="geometry" />
        </mxCell>
        <mxCell id="U-dQp2Zvjfx5eXS3F79k-291" value="" style="shape=table;startSize=0;container=1;collapsible=0;childLayout=tableLayout;fontSize=16;" vertex="1" parent="1">
          <mxGeometry x="60" y="3029" width="509" height="120" as="geometry" />
        </mxCell>
        <mxCell id="U-dQp2Zvjfx5eXS3F79k-292" value="" style="shape=tableRow;horizontal=0;startSize=0;swimlaneHead=0;swimlaneBody=0;strokeColor=inherit;top=0;left=0;bottom=0;right=0;collapsible=0;dropTarget=0;fillColor=none;points=[[0,0.5],[1,0.5]];portConstraint=eastwest;fontSize=16;" vertex="1" parent="U-dQp2Zvjfx5eXS3F79k-291">
          <mxGeometry width="509" height="40" as="geometry" />
        </mxCell>
        <mxCell id="U-dQp2Zvjfx5eXS3F79k-293" value="Step" style="shape=partialRectangle;html=1;whiteSpace=wrap;connectable=0;strokeColor=inherit;overflow=hidden;fillColor=none;top=0;left=0;bottom=0;right=0;pointerEvents=1;fontSize=16;" vertex="1" parent="U-dQp2Zvjfx5eXS3F79k-292">
          <mxGeometry width="170" height="40" as="geometry">
            <mxRectangle width="170" height="40" as="alternateBounds" />
          </mxGeometry>
        </mxCell>
        <mxCell id="U-dQp2Zvjfx5eXS3F79k-294" value="Utente" style="shape=partialRectangle;html=1;whiteSpace=wrap;connectable=0;strokeColor=inherit;overflow=hidden;fillColor=none;top=0;left=0;bottom=0;right=0;pointerEvents=1;fontSize=16;" vertex="1" parent="U-dQp2Zvjfx5eXS3F79k-292">
          <mxGeometry x="170" width="169" height="40" as="geometry">
            <mxRectangle width="169" height="40" as="alternateBounds" />
          </mxGeometry>
        </mxCell>
        <mxCell id="U-dQp2Zvjfx5eXS3F79k-295" value="System" style="shape=partialRectangle;html=1;whiteSpace=wrap;connectable=0;strokeColor=inherit;overflow=hidden;fillColor=none;top=0;left=0;bottom=0;right=0;pointerEvents=1;fontSize=16;" vertex="1" parent="U-dQp2Zvjfx5eXS3F79k-292">
          <mxGeometry x="339" width="170" height="40" as="geometry">
            <mxRectangle width="170" height="40" as="alternateBounds" />
          </mxGeometry>
        </mxCell>
        <mxCell id="U-dQp2Zvjfx5eXS3F79k-296" value="" style="shape=tableRow;horizontal=0;startSize=0;swimlaneHead=0;swimlaneBody=0;strokeColor=inherit;top=0;left=0;bottom=0;right=0;collapsible=0;dropTarget=0;fillColor=none;points=[[0,0.5],[1,0.5]];portConstraint=eastwest;fontSize=16;" vertex="1" parent="U-dQp2Zvjfx5eXS3F79k-291">
          <mxGeometry y="40" width="509" height="40" as="geometry" />
        </mxCell>
        <mxCell id="U-dQp2Zvjfx5eXS3F79k-297" value="4.1" style="shape=partialRectangle;html=1;whiteSpace=wrap;connectable=0;strokeColor=inherit;overflow=hidden;fillColor=none;top=0;left=0;bottom=0;right=0;pointerEvents=1;fontSize=16;" vertex="1" parent="U-dQp2Zvjfx5eXS3F79k-296">
          <mxGeometry width="170" height="40" as="geometry">
            <mxRectangle width="170" height="40" as="alternateBounds" />
          </mxGeometry>
        </mxCell>
        <mxCell id="U-dQp2Zvjfx5eXS3F79k-298" value="Preme bottone di ricerca" style="shape=partialRectangle;html=1;whiteSpace=wrap;connectable=0;strokeColor=inherit;overflow=hidden;fillColor=none;top=0;left=0;bottom=0;right=0;pointerEvents=1;fontSize=16;" vertex="1" parent="U-dQp2Zvjfx5eXS3F79k-296">
          <mxGeometry x="170" width="169" height="40" as="geometry">
            <mxRectangle width="169" height="40" as="alternateBounds" />
          </mxGeometry>
        </mxCell>
        <mxCell id="U-dQp2Zvjfx5eXS3F79k-299" value="" style="shape=partialRectangle;html=1;whiteSpace=wrap;connectable=0;strokeColor=inherit;overflow=hidden;fillColor=none;top=0;left=0;bottom=0;right=0;pointerEvents=1;fontSize=16;" vertex="1" parent="U-dQp2Zvjfx5eXS3F79k-296">
          <mxGeometry x="339" width="170" height="40" as="geometry">
            <mxRectangle width="170" height="40" as="alternateBounds" />
          </mxGeometry>
        </mxCell>
        <mxCell id="U-dQp2Zvjfx5eXS3F79k-300" value="" style="shape=tableRow;horizontal=0;startSize=0;swimlaneHead=0;swimlaneBody=0;strokeColor=inherit;top=0;left=0;bottom=0;right=0;collapsible=0;dropTarget=0;fillColor=none;points=[[0,0.5],[1,0.5]];portConstraint=eastwest;fontSize=16;" vertex="1" parent="U-dQp2Zvjfx5eXS3F79k-291">
          <mxGeometry y="80" width="509" height="40" as="geometry" />
        </mxCell>
        <mxCell id="U-dQp2Zvjfx5eXS3F79k-301" value="5.1" style="shape=partialRectangle;html=1;whiteSpace=wrap;connectable=0;strokeColor=inherit;overflow=hidden;fillColor=none;top=0;left=0;bottom=0;right=0;pointerEvents=1;fontSize=16;" vertex="1" parent="U-dQp2Zvjfx5eXS3F79k-300">
          <mxGeometry width="170" height="40" as="geometry">
            <mxRectangle width="170" height="40" as="alternateBounds" />
          </mxGeometry>
        </mxCell>
        <mxCell id="U-dQp2Zvjfx5eXS3F79k-302" value="" style="shape=partialRectangle;html=1;whiteSpace=wrap;connectable=0;strokeColor=inherit;overflow=hidden;fillColor=none;top=0;left=0;bottom=0;right=0;pointerEvents=1;fontSize=16;" vertex="1" parent="U-dQp2Zvjfx5eXS3F79k-300">
          <mxGeometry x="170" width="169" height="40" as="geometry">
            <mxRectangle width="169" height="40" as="alternateBounds" />
          </mxGeometry>
        </mxCell>
        <mxCell id="U-dQp2Zvjfx5eXS3F79k-303" value="Non mostra risultati" style="shape=partialRectangle;html=1;whiteSpace=wrap;connectable=0;strokeColor=inherit;overflow=hidden;fillColor=none;top=0;left=0;bottom=0;right=0;pointerEvents=1;fontSize=16;" vertex="1" parent="U-dQp2Zvjfx5eXS3F79k-300">
          <mxGeometry x="339" width="170" height="40" as="geometry">
            <mxRectangle width="170" height="40" as="alternateBounds" />
          </mxGeometry>
        </mxCell>
      </root>
    </mxGraphModel>
  </diagram>
</mxfile>
